G04*
G04 #@! TF.GenerationSoftware,Altium Limited,Altium Designer,25.4.2 (15)*
G04*
G04 Layer_Physical_Order=2*
G04 Layer_Color=16711680*
%FSLAX44Y44*%
%MOMM*%
G71*
G04*
G04 #@! TF.SameCoordinates,803F4C27-1115-4C0D-8F39-351A014CAFA1*
G04*
G04*
G04 #@! TF.FilePolarity,Positive*
G04*
G01*
G75*
%ADD11C,0.2000*%
%ADD22C,0.9906*%
%ADD38C,2.3749*%
%ADD39C,0.8000*%
%ADD40C,1.2700*%
G36*
X827579Y390216D02*
X830799Y389239D01*
X833767Y387653D01*
X836368Y385518D01*
X838503Y382917D01*
X840089Y379949D01*
X841066Y376729D01*
X841313Y374216D01*
X841333Y372746D01*
X841333D01*
X841372Y371282D01*
Y14009D01*
X841390Y13915D01*
X841066Y10621D01*
X840089Y7401D01*
X838503Y4433D01*
X836368Y1832D01*
X833767Y-303D01*
X830799Y-1889D01*
X827579Y-2866D01*
X825067Y-3113D01*
X823596Y-3133D01*
Y-3133D01*
X822132Y-3172D01*
X14009D01*
X13915Y-3190D01*
X10621Y-2866D01*
X7401Y-1889D01*
X6559Y-1439D01*
X-1439Y6559D01*
X-1889Y7401D01*
X-2866Y10621D01*
X-3113Y13133D01*
X-3133Y14604D01*
X-3133D01*
X-3172Y16068D01*
Y26336D01*
Y372071D01*
X-3388Y373159D01*
X-4005Y374082D01*
X-4372Y374328D01*
X-4136Y376729D01*
X-3159Y379949D01*
X-2135Y381865D01*
X4215Y388215D01*
X6131Y389239D01*
X9351Y390216D01*
X11863Y390463D01*
X13334Y390483D01*
Y390483D01*
X14798Y390522D01*
X824191D01*
X824285Y390540D01*
X827579Y390216D01*
D02*
G37*
%LPC*%
G36*
X379940Y386465D02*
X254940D01*
X253777Y385983D01*
X253295Y384820D01*
Y341320D01*
X253777Y340157D01*
X254940Y339675D01*
X379940D01*
X381103Y340157D01*
X381585Y341320D01*
Y384820D01*
X381103Y385983D01*
X379940Y386465D01*
D02*
G37*
G36*
X458298Y310813D02*
X455723D01*
X453343Y309828D01*
X451522Y308007D01*
X450537Y305628D01*
Y303053D01*
X451522Y300674D01*
X453343Y298853D01*
X455723Y297867D01*
X458298D01*
X460677Y298853D01*
X462498Y300674D01*
X463483Y303053D01*
Y305628D01*
X462498Y308007D01*
X460677Y309828D01*
X458298Y310813D01*
D02*
G37*
G36*
X459423Y293285D02*
X454597D01*
X454597Y293285D01*
X454596Y293285D01*
X454029Y293050D01*
X453493Y292857D01*
X453476Y292821D01*
X453434Y292803D01*
X453433Y292803D01*
X453433Y292803D01*
X453185Y292202D01*
X452957Y291718D01*
X452953Y291643D01*
X452952Y291640D01*
Y291616D01*
X452947Y291509D01*
X452941Y291388D01*
X452928Y291298D01*
X452904Y291181D01*
X452873Y291056D01*
X452827Y290903D01*
X452794Y290798D01*
X452757Y290711D01*
X452706Y290602D01*
X452659Y290517D01*
X452579Y290394D01*
Y290394D01*
X452579Y290394D01*
X452504Y290278D01*
X452444Y290200D01*
X452385Y290132D01*
X452277Y290023D01*
X452168Y289915D01*
X452101Y289856D01*
X452022Y289796D01*
X451906Y289721D01*
X451906Y289721D01*
X451906Y289721D01*
X451783Y289641D01*
X451698Y289594D01*
X451588Y289542D01*
X451502Y289506D01*
X451397Y289473D01*
X451244Y289427D01*
X451119Y289396D01*
X451002Y289372D01*
X450912Y289359D01*
X450792Y289353D01*
X450792Y289353D01*
X450582Y289343D01*
X450045Y289090D01*
X449497Y288863D01*
X449481Y288825D01*
X449443Y288807D01*
X449242Y288248D01*
X449015Y287700D01*
Y282880D01*
X449242Y282332D01*
X449432Y281803D01*
X449443Y281773D01*
X449443Y281773D01*
X449481Y281755D01*
X449497Y281717D01*
X449498Y281716D01*
X450045Y281490D01*
X450582Y281237D01*
X450792Y281227D01*
X451906Y280859D01*
X452022Y280784D01*
X452100Y280724D01*
X452168Y280665D01*
X452277Y280557D01*
X452385Y280448D01*
X452444Y280381D01*
X452504Y280302D01*
X452579Y280186D01*
X452579Y280186D01*
X452579Y280186D01*
X452659Y280063D01*
X452706Y279978D01*
X452758Y279868D01*
X452794Y279782D01*
X452827Y279677D01*
X452873Y279524D01*
X452904Y279399D01*
X452928Y279282D01*
X452941Y279192D01*
X452947Y279072D01*
X452947Y279072D01*
X452952Y278964D01*
Y278916D01*
X452947Y278809D01*
X452941Y278688D01*
X452928Y278598D01*
X452904Y278481D01*
X452873Y278356D01*
X452827Y278203D01*
X452794Y278098D01*
X452757Y278011D01*
X452706Y277902D01*
X452659Y277817D01*
X452579Y277694D01*
Y277694D01*
X452579Y277694D01*
X452504Y277578D01*
X452444Y277500D01*
X452385Y277432D01*
X452277Y277323D01*
X452168Y277215D01*
X452101Y277156D01*
X452022Y277096D01*
X451906Y277021D01*
X451906Y277021D01*
X451906Y277021D01*
X451783Y276941D01*
X451698Y276894D01*
X451588Y276842D01*
X451502Y276806D01*
X451397Y276773D01*
X451244Y276727D01*
X451119Y276696D01*
X451002Y276672D01*
X450912Y276659D01*
X450792Y276653D01*
X450792Y276653D01*
X450582Y276643D01*
X450045Y276390D01*
X449497Y276163D01*
X449481Y276125D01*
X449443Y276107D01*
X449242Y275548D01*
X449015Y275000D01*
Y270180D01*
X449242Y269632D01*
X449432Y269103D01*
X449443Y269073D01*
X449443Y269073D01*
X449481Y269055D01*
X449497Y269017D01*
X449498Y269016D01*
X450045Y268790D01*
X450582Y268537D01*
X450792Y268527D01*
X451906Y268159D01*
X452022Y268084D01*
X452100Y268024D01*
X452168Y267965D01*
X452277Y267857D01*
X452385Y267748D01*
X452444Y267681D01*
X452504Y267602D01*
X452579Y267486D01*
X452579Y267486D01*
X452579Y267486D01*
X452659Y267363D01*
X452706Y267278D01*
X452758Y267168D01*
X452794Y267082D01*
X452827Y266977D01*
X452873Y266824D01*
X452904Y266699D01*
X452928Y266582D01*
X452941Y266492D01*
X452947Y266372D01*
X452947Y266372D01*
X452952Y266264D01*
Y266216D01*
X452947Y266109D01*
X452941Y265988D01*
X452928Y265898D01*
X452904Y265781D01*
X452873Y265657D01*
X452827Y265503D01*
X452794Y265398D01*
X452757Y265311D01*
X452706Y265202D01*
X452659Y265117D01*
X452579Y264994D01*
Y264994D01*
X452579Y264994D01*
X452504Y264878D01*
X452444Y264799D01*
X452385Y264732D01*
X452277Y264623D01*
X452168Y264515D01*
X452101Y264456D01*
X452022Y264396D01*
X451906Y264321D01*
X451906Y264321D01*
X451906Y264321D01*
X451783Y264241D01*
X451698Y264194D01*
X451588Y264142D01*
X451502Y264106D01*
X451397Y264073D01*
X451244Y264027D01*
X451119Y263996D01*
X451002Y263972D01*
X450912Y263959D01*
X450792Y263953D01*
X450792Y263953D01*
X450582Y263943D01*
X450045Y263690D01*
X449497Y263463D01*
X449481Y263425D01*
X449443Y263407D01*
X449242Y262848D01*
X449015Y262300D01*
Y257480D01*
X449242Y256932D01*
X449432Y256403D01*
X449443Y256373D01*
X449443Y256373D01*
X449481Y256355D01*
X449497Y256317D01*
X449498Y256316D01*
X450045Y256090D01*
X450582Y255837D01*
X450792Y255827D01*
X451906Y255459D01*
X452022Y255384D01*
X452100Y255324D01*
X452168Y255265D01*
X452277Y255157D01*
X452385Y255048D01*
X452444Y254981D01*
X452504Y254902D01*
X452579Y254786D01*
X452579Y254786D01*
X452579Y254786D01*
X452659Y254663D01*
X452706Y254578D01*
X452758Y254468D01*
X452794Y254382D01*
X452827Y254277D01*
X452873Y254124D01*
X452904Y253999D01*
X452928Y253882D01*
X452941Y253792D01*
X452947Y253672D01*
X452947Y253672D01*
X452952Y253563D01*
Y253516D01*
X452947Y253409D01*
X452941Y253288D01*
X452928Y253198D01*
X452904Y253081D01*
X452873Y252957D01*
X452827Y252803D01*
X452794Y252698D01*
X452757Y252611D01*
X452706Y252502D01*
X452659Y252417D01*
X452579Y252294D01*
Y252294D01*
X452579Y252294D01*
X452504Y252178D01*
X452444Y252099D01*
X452385Y252032D01*
X452277Y251923D01*
X452168Y251815D01*
X452101Y251756D01*
X452022Y251696D01*
X451906Y251621D01*
X451906Y251621D01*
X451906Y251621D01*
X451783Y251541D01*
X451698Y251494D01*
X451588Y251442D01*
X451502Y251406D01*
X451397Y251373D01*
X451244Y251327D01*
X451119Y251296D01*
X451002Y251272D01*
X450912Y251259D01*
X450792Y251253D01*
X450792Y251253D01*
X450582Y251243D01*
X450045Y250990D01*
X449497Y250763D01*
X449481Y250725D01*
X449443Y250707D01*
X449242Y250148D01*
X449015Y249600D01*
Y244780D01*
X449242Y244232D01*
X449432Y243703D01*
X449443Y243673D01*
X449443Y243673D01*
X449481Y243655D01*
X449497Y243617D01*
X449498Y243616D01*
X450045Y243390D01*
X450582Y243137D01*
X450792Y243127D01*
X451906Y242759D01*
X452022Y242684D01*
X452100Y242624D01*
X452168Y242565D01*
X452277Y242457D01*
X452385Y242348D01*
X452444Y242281D01*
X452504Y242202D01*
X452579Y242086D01*
X452579Y242086D01*
X452579Y242086D01*
X452659Y241963D01*
X452706Y241878D01*
X452758Y241768D01*
X452794Y241682D01*
X452827Y241577D01*
X452873Y241424D01*
X452904Y241299D01*
X452928Y241182D01*
X452941Y241092D01*
X452947Y240972D01*
X452947Y240972D01*
X452952Y240863D01*
Y240840D01*
X452953Y240837D01*
X452957Y240762D01*
X453185Y240277D01*
X453434Y239677D01*
X453476Y239659D01*
X453493Y239623D01*
X454029Y239430D01*
X454597Y239195D01*
X459423D01*
X459423Y239195D01*
X459424Y239195D01*
X459991Y239430D01*
X460527Y239623D01*
X460544Y239659D01*
X460586Y239677D01*
X460587Y239677D01*
X460587Y239677D01*
X460835Y240278D01*
X461063Y240762D01*
X461067Y240837D01*
X461068Y240840D01*
Y240864D01*
X461073Y240971D01*
X461079Y241092D01*
X461092Y241182D01*
X461116Y241299D01*
X461147Y241423D01*
X461193Y241577D01*
X461226Y241682D01*
X461263Y241769D01*
X461314Y241878D01*
X461361Y241963D01*
X461441Y242086D01*
Y242086D01*
X461441Y242086D01*
X461516Y242202D01*
X461576Y242281D01*
X461635Y242348D01*
X461743Y242457D01*
X461852Y242565D01*
X461919Y242624D01*
X461998Y242684D01*
X462114Y242759D01*
X462114Y242759D01*
X462114Y242759D01*
X462237Y242839D01*
X462322Y242886D01*
X462432Y242938D01*
X462518Y242974D01*
X462623Y243007D01*
X462776Y243053D01*
X462901Y243084D01*
X463018Y243108D01*
X463108Y243121D01*
X463228Y243127D01*
X463228Y243127D01*
X463438Y243137D01*
X463975Y243390D01*
X464523Y243617D01*
X464539Y243655D01*
X464577Y243673D01*
X464778Y244232D01*
X465005Y244780D01*
Y249600D01*
X464778Y250148D01*
X464588Y250677D01*
X464577Y250707D01*
X464577Y250707D01*
X464539Y250725D01*
X464523Y250763D01*
X464522Y250764D01*
X463975Y250990D01*
X463438Y251243D01*
X463228Y251253D01*
X462114Y251621D01*
X461998Y251696D01*
X461920Y251756D01*
X461852Y251815D01*
X461743Y251923D01*
X461635Y252032D01*
X461576Y252099D01*
X461516Y252178D01*
X461441Y252294D01*
X461441Y252294D01*
X461441Y252294D01*
X461361Y252417D01*
X461314Y252502D01*
X461262Y252612D01*
X461226Y252698D01*
X461193Y252803D01*
X461147Y252956D01*
X461116Y253081D01*
X461092Y253198D01*
X461079Y253288D01*
X461073Y253408D01*
X461073Y253408D01*
X461068Y253517D01*
Y253564D01*
X461073Y253671D01*
X461079Y253792D01*
X461092Y253882D01*
X461116Y253999D01*
X461147Y254123D01*
X461193Y254277D01*
X461226Y254382D01*
X461263Y254469D01*
X461314Y254578D01*
X461361Y254663D01*
X461441Y254786D01*
Y254786D01*
X461441Y254786D01*
X461516Y254902D01*
X461576Y254981D01*
X461635Y255048D01*
X461743Y255157D01*
X461852Y255265D01*
X461919Y255324D01*
X461998Y255384D01*
X462114Y255459D01*
X462114Y255459D01*
X462114Y255459D01*
X462237Y255539D01*
X462322Y255586D01*
X462432Y255638D01*
X462518Y255674D01*
X462623Y255707D01*
X462776Y255753D01*
X462901Y255784D01*
X463018Y255808D01*
X463108Y255821D01*
X463228Y255827D01*
X463228Y255827D01*
X463438Y255837D01*
X463975Y256090D01*
X464523Y256317D01*
X464539Y256355D01*
X464577Y256373D01*
X464778Y256932D01*
X465005Y257480D01*
Y262300D01*
X464778Y262848D01*
X464588Y263377D01*
X464577Y263407D01*
X464577Y263407D01*
X464539Y263425D01*
X464523Y263463D01*
X464522Y263464D01*
X463975Y263690D01*
X463438Y263943D01*
X463228Y263953D01*
X462114Y264321D01*
X461998Y264396D01*
X461920Y264456D01*
X461852Y264515D01*
X461743Y264623D01*
X461635Y264732D01*
X461576Y264799D01*
X461516Y264878D01*
X461441Y264994D01*
X461441Y264994D01*
X461441Y264994D01*
X461361Y265117D01*
X461314Y265202D01*
X461262Y265312D01*
X461226Y265398D01*
X461193Y265503D01*
X461147Y265656D01*
X461116Y265781D01*
X461092Y265898D01*
X461079Y265988D01*
X461073Y266108D01*
X461073Y266108D01*
X461068Y266217D01*
Y266264D01*
X461073Y266371D01*
X461079Y266492D01*
X461092Y266582D01*
X461116Y266699D01*
X461147Y266824D01*
X461193Y266977D01*
X461226Y267082D01*
X461263Y267169D01*
X461314Y267278D01*
X461361Y267363D01*
X461441Y267486D01*
Y267486D01*
X461441Y267486D01*
X461516Y267602D01*
X461576Y267680D01*
X461635Y267748D01*
X461743Y267857D01*
X461852Y267965D01*
X461919Y268024D01*
X461998Y268084D01*
X462114Y268159D01*
X462114Y268159D01*
X462114Y268159D01*
X462237Y268239D01*
X462322Y268286D01*
X462432Y268338D01*
X462518Y268374D01*
X462623Y268407D01*
X462776Y268453D01*
X462901Y268484D01*
X463018Y268508D01*
X463108Y268521D01*
X463228Y268527D01*
X463228Y268527D01*
X463438Y268537D01*
X463975Y268790D01*
X464523Y269017D01*
X464539Y269055D01*
X464577Y269073D01*
X464778Y269632D01*
X465005Y270180D01*
Y275000D01*
X464778Y275548D01*
X464588Y276077D01*
X464577Y276107D01*
X464577Y276107D01*
X464539Y276125D01*
X464523Y276163D01*
X464522Y276164D01*
X463975Y276390D01*
X463438Y276643D01*
X463228Y276653D01*
X462114Y277021D01*
X461998Y277096D01*
X461920Y277156D01*
X461852Y277215D01*
X461743Y277323D01*
X461635Y277432D01*
X461576Y277499D01*
X461516Y277578D01*
X461441Y277694D01*
X461441Y277694D01*
X461441Y277694D01*
X461361Y277817D01*
X461314Y277902D01*
X461262Y278012D01*
X461226Y278098D01*
X461193Y278203D01*
X461147Y278356D01*
X461116Y278481D01*
X461092Y278598D01*
X461079Y278688D01*
X461073Y278808D01*
X461073Y278808D01*
X461068Y278916D01*
Y278964D01*
X461073Y279071D01*
X461079Y279192D01*
X461092Y279282D01*
X461116Y279399D01*
X461147Y279524D01*
X461193Y279677D01*
X461226Y279782D01*
X461263Y279869D01*
X461314Y279978D01*
X461361Y280063D01*
X461441Y280186D01*
Y280186D01*
X461441Y280186D01*
X461516Y280302D01*
X461576Y280380D01*
X461635Y280448D01*
X461743Y280557D01*
X461852Y280665D01*
X461919Y280724D01*
X461998Y280784D01*
X462114Y280859D01*
X462114Y280859D01*
X462114Y280859D01*
X462237Y280939D01*
X462322Y280986D01*
X462432Y281038D01*
X462518Y281074D01*
X462623Y281107D01*
X462776Y281153D01*
X462901Y281184D01*
X463018Y281208D01*
X463108Y281221D01*
X463228Y281227D01*
X463228Y281227D01*
X463438Y281237D01*
X463975Y281490D01*
X464523Y281717D01*
X464539Y281755D01*
X464577Y281773D01*
X464778Y282332D01*
X465005Y282880D01*
Y287700D01*
X464778Y288248D01*
X464588Y288777D01*
X464577Y288807D01*
X464577Y288807D01*
X464539Y288825D01*
X464523Y288863D01*
X464522Y288864D01*
X463975Y289090D01*
X463438Y289343D01*
X463228Y289353D01*
X462114Y289721D01*
X461998Y289796D01*
X461920Y289856D01*
X461852Y289915D01*
X461743Y290023D01*
X461635Y290132D01*
X461576Y290199D01*
X461516Y290278D01*
X461441Y290394D01*
X461441Y290394D01*
X461441Y290394D01*
X461361Y290517D01*
X461314Y290602D01*
X461262Y290712D01*
X461226Y290798D01*
X461193Y290903D01*
X461147Y291056D01*
X461116Y291181D01*
X461092Y291298D01*
X461079Y291388D01*
X461073Y291508D01*
X461073Y291508D01*
X461068Y291616D01*
Y291640D01*
X461067Y291643D01*
X461063Y291718D01*
X460835Y292203D01*
X460586Y292803D01*
X460544Y292821D01*
X460527Y292857D01*
X459991Y293050D01*
X459423Y293285D01*
D02*
G37*
G36*
X484173Y317735D02*
X480647D01*
X477240Y316822D01*
X474186Y315058D01*
X471692Y312565D01*
X469928Y309510D01*
X469016Y306104D01*
Y302577D01*
X469928Y299170D01*
X471692Y296116D01*
X474186Y293622D01*
X477240Y291859D01*
X480647Y290946D01*
X484173D01*
X487580Y291859D01*
X490634Y293622D01*
X493128Y296116D01*
X494892Y299170D01*
X495804Y302577D01*
Y306104D01*
X494892Y309510D01*
X493128Y312565D01*
X490634Y315058D01*
X487580Y316822D01*
X484173Y317735D01*
D02*
G37*
G36*
X433373D02*
X429847D01*
X426440Y316822D01*
X423386Y315058D01*
X420892Y312565D01*
X419128Y309510D01*
X418215Y306104D01*
Y302577D01*
X419128Y299170D01*
X420892Y296116D01*
X423386Y293622D01*
X426440Y291859D01*
X429847Y290946D01*
X433373D01*
X436780Y291859D01*
X439834Y293622D01*
X442328Y296116D01*
X444092Y299170D01*
X445005Y302577D01*
Y306104D01*
X444092Y309510D01*
X442328Y312565D01*
X439834Y315058D01*
X436780Y316822D01*
X433373Y317735D01*
D02*
G37*
G36*
X395510Y277790D02*
Y272630D01*
X400670D01*
X400334Y273884D01*
X399473Y275376D01*
X398256Y276593D01*
X396764Y277454D01*
X395510Y277790D01*
D02*
G37*
G36*
X392970D02*
X391716Y277454D01*
X390224Y276593D01*
X389007Y275376D01*
X388146Y273884D01*
X387810Y272630D01*
X392970D01*
Y277790D01*
D02*
G37*
G36*
X287818Y271760D02*
X285622D01*
X283790Y271001D01*
X283532Y271174D01*
X282548Y271369D01*
X236692D01*
X236692Y271369D01*
X235708Y271174D01*
X234875Y270617D01*
X233703Y269445D01*
X233146Y268612D01*
X232951Y267628D01*
Y230191D01*
X232393Y229960D01*
X230840Y228407D01*
X230000Y226378D01*
Y224182D01*
X230840Y222153D01*
X232393Y220600D01*
X234422Y219760D01*
X236618D01*
X238647Y220600D01*
X240200Y222153D01*
X241040Y224182D01*
Y226378D01*
X240200Y228407D01*
X238647Y229960D01*
X238089Y230191D01*
Y266231D01*
X281200D01*
Y265142D01*
X282040Y263113D01*
X283593Y261560D01*
X285622Y260720D01*
X287818D01*
X289847Y261560D01*
X291400Y263113D01*
X292240Y265142D01*
Y267338D01*
X291400Y269367D01*
X289847Y270920D01*
X287818Y271760D01*
D02*
G37*
G36*
X313590Y275230D02*
Y270070D01*
X318750D01*
X318414Y271324D01*
X317553Y272816D01*
X316336Y274033D01*
X314844Y274894D01*
X313590Y275230D01*
D02*
G37*
G36*
X318750Y267530D02*
X313590D01*
Y262370D01*
X314844Y262706D01*
X316336Y263567D01*
X317553Y264784D01*
X318414Y266276D01*
X318750Y267530D01*
D02*
G37*
G36*
X311050Y275230D02*
X309796Y274894D01*
X308304Y274033D01*
X307087Y272816D01*
X306252Y271369D01*
X304640D01*
X303657Y271174D01*
X302823Y270617D01*
X300263Y268057D01*
X299706Y267223D01*
X299511Y266240D01*
Y221332D01*
X299706Y220348D01*
X300263Y219515D01*
X301435Y218343D01*
X302268Y217786D01*
X303252Y217591D01*
X303252Y217591D01*
X311485D01*
X311716Y216729D01*
X312886Y214701D01*
X314541Y213046D01*
X316569Y211876D01*
X318730Y211297D01*
Y220160D01*
Y229023D01*
X316569Y228444D01*
X314541Y227274D01*
X312886Y225619D01*
X311716Y223591D01*
X311485Y222729D01*
X304649D01*
Y264064D01*
X305470Y264805D01*
X307087Y264784D01*
X308304Y263567D01*
X309796Y262706D01*
X311050Y262370D01*
Y268800D01*
Y275230D01*
D02*
G37*
G36*
X484173Y260585D02*
X480647D01*
X477240Y259672D01*
X474186Y257908D01*
X471692Y255415D01*
X469928Y252360D01*
X469016Y248954D01*
Y245427D01*
X469928Y242020D01*
X471692Y238966D01*
X474186Y236472D01*
X477240Y234709D01*
X480647Y233796D01*
X484173D01*
X487580Y234709D01*
X490634Y236472D01*
X493128Y238966D01*
X494892Y242020D01*
X495804Y245427D01*
Y248954D01*
X494892Y252360D01*
X493128Y255415D01*
X490634Y257908D01*
X487580Y259672D01*
X484173Y260585D01*
D02*
G37*
G36*
X433373D02*
X429847D01*
X426440Y259672D01*
X423386Y257908D01*
X420892Y255415D01*
X419128Y252360D01*
X418215Y248954D01*
Y245427D01*
X419128Y242020D01*
X420892Y238966D01*
X423386Y236472D01*
X426440Y234709D01*
X429847Y233796D01*
X433373D01*
X436780Y234709D01*
X439834Y236472D01*
X442328Y238966D01*
X444092Y242020D01*
X445005Y245427D01*
Y248954D01*
X444092Y252360D01*
X442328Y255415D01*
X439834Y257908D01*
X436780Y259672D01*
X433373Y260585D01*
D02*
G37*
G36*
X359670Y231583D02*
Y223990D01*
X367263D01*
X366684Y226151D01*
X365514Y228179D01*
X363859Y229834D01*
X361831Y231004D01*
X359670Y231583D01*
D02*
G37*
G36*
X357130D02*
X354969Y231004D01*
X352941Y229834D01*
X351286Y228179D01*
X350116Y226151D01*
X349537Y223990D01*
X357130D01*
Y231583D01*
D02*
G37*
G36*
X270070D02*
Y223990D01*
X277663D01*
X277084Y226151D01*
X275914Y228179D01*
X274259Y229834D01*
X272231Y231004D01*
X270070Y231583D01*
D02*
G37*
G36*
X267530D02*
X265369Y231004D01*
X263341Y229834D01*
X261686Y228179D01*
X260516Y226151D01*
X259937Y223990D01*
X267530D01*
Y231583D01*
D02*
G37*
G36*
X468447Y234613D02*
X465872D01*
X463493Y233628D01*
X461672Y231807D01*
X460687Y229428D01*
Y226853D01*
X461672Y224474D01*
X463493Y222653D01*
X465872Y221667D01*
X468447D01*
X470826Y222653D01*
X472647Y224474D01*
X473633Y226853D01*
Y229428D01*
X472647Y231807D01*
X470826Y233628D01*
X468447Y234613D01*
D02*
G37*
G36*
X448148D02*
X445573D01*
X443194Y233628D01*
X441373Y231807D01*
X440387Y229428D01*
Y226853D01*
X441373Y224474D01*
X443194Y222653D01*
X445573Y221667D01*
X448148D01*
X450527Y222653D01*
X452348Y224474D01*
X453333Y226853D01*
Y229428D01*
X452348Y231807D01*
X450527Y233628D01*
X448148Y234613D01*
D02*
G37*
G36*
X321270Y229023D02*
Y221430D01*
X328863D01*
X328284Y223591D01*
X327114Y225619D01*
X325459Y227274D01*
X323431Y228444D01*
X321270Y229023D01*
D02*
G37*
G36*
X385098Y223120D02*
X382902D01*
X380873Y222280D01*
X379320Y220727D01*
X378480Y218698D01*
Y217325D01*
X376204Y215049D01*
X365423D01*
X364802Y216549D01*
X365514Y217261D01*
X366684Y219289D01*
X367263Y221450D01*
X349537D01*
X350116Y219289D01*
X351286Y217261D01*
X351998Y216549D01*
X351377Y215049D01*
X348276D01*
X346000Y217325D01*
Y218698D01*
X345160Y220727D01*
X343607Y222280D01*
X341578Y223120D01*
X339382D01*
X337353Y222280D01*
X335800Y220727D01*
X334960Y218698D01*
Y216502D01*
X335800Y214473D01*
X337353Y212920D01*
X339382Y212080D01*
X341578D01*
X343275Y212783D01*
X345395Y210663D01*
X346228Y210106D01*
X347212Y209911D01*
X377268D01*
X378252Y210106D01*
X379085Y210663D01*
X381205Y212783D01*
X382902Y212080D01*
X385098D01*
X387127Y212920D01*
X388680Y214473D01*
X389520Y216502D01*
Y218698D01*
X388680Y220727D01*
X387127Y222280D01*
X385098Y223120D01*
D02*
G37*
G36*
X277663Y221450D02*
X270070D01*
Y213857D01*
X272231Y214436D01*
X274259Y215606D01*
X275914Y217261D01*
X277084Y219289D01*
X277663Y221450D01*
D02*
G37*
G36*
X267530D02*
X259937D01*
X260516Y219289D01*
X261686Y217261D01*
X263341Y215606D01*
X265369Y214436D01*
X267530Y213857D01*
Y221450D01*
D02*
G37*
G36*
X328863Y218890D02*
X321270D01*
Y211297D01*
X323431Y211876D01*
X325459Y213046D01*
X327114Y214701D01*
X328284Y216729D01*
X328863Y218890D01*
D02*
G37*
G36*
X413430Y188190D02*
Y183030D01*
X418590D01*
X418254Y184284D01*
X417393Y185776D01*
X416176Y186993D01*
X414684Y187854D01*
X413430Y188190D01*
D02*
G37*
G36*
X418590Y180490D02*
X413430D01*
Y175330D01*
X414684Y175666D01*
X416176Y176527D01*
X417393Y177744D01*
X418254Y179236D01*
X418590Y180490D01*
D02*
G37*
G36*
X400670Y270090D02*
X387810D01*
X388146Y268836D01*
X389007Y267344D01*
X390224Y266127D01*
X391671Y265292D01*
Y184320D01*
X391866Y183337D01*
X392423Y182503D01*
X394593Y180333D01*
X395427Y179776D01*
X396410Y179580D01*
X405973D01*
X406066Y179236D01*
X406927Y177744D01*
X408144Y176527D01*
X409636Y175666D01*
X410890Y175330D01*
Y181760D01*
Y188190D01*
X409636Y187854D01*
X408144Y186993D01*
X406927Y185776D01*
X406317Y184719D01*
X397475D01*
X396809Y185384D01*
Y265292D01*
X398256Y266127D01*
X399473Y267344D01*
X400334Y268836D01*
X400670Y270090D01*
D02*
G37*
G36*
X384000Y139885D02*
X266240D01*
X265077Y139403D01*
X264595Y138240D01*
Y104960D01*
X265077Y103797D01*
X266240Y103315D01*
X384000D01*
X385163Y103797D01*
X385645Y104960D01*
Y138240D01*
X385163Y139403D01*
X384000Y139885D01*
D02*
G37*
G36*
X836890Y350895D02*
X516890D01*
X515727Y350413D01*
X515245Y349250D01*
Y29250D01*
X515727Y28087D01*
X516890Y27605D01*
X836890D01*
X838053Y28087D01*
X838535Y29250D01*
Y349250D01*
X838053Y350413D01*
X836890Y350895D01*
D02*
G37*
G36*
X376320Y101485D02*
X273920D01*
X272757Y101003D01*
X272275Y99840D01*
Y56320D01*
X271663Y55405D01*
X266240D01*
X265077Y54923D01*
X264595Y53760D01*
Y20480D01*
X265077Y19317D01*
X266240Y18835D01*
X384000D01*
X385163Y19317D01*
X385645Y20480D01*
Y53760D01*
X385163Y54923D01*
X384000Y55405D01*
X378577D01*
X377965Y56320D01*
Y99840D01*
X377483Y101003D01*
X376320Y101485D01*
D02*
G37*
%LPD*%
D11*
X396410Y182150D02*
X411770D01*
X412160Y181760D01*
X303252Y220160D02*
X320000D01*
X302080Y221332D02*
Y266240D01*
Y221332D02*
X303252Y220160D01*
X377268Y212480D02*
X382388Y217600D01*
X342092D02*
X347212Y212480D01*
X377268D01*
X340480Y217600D02*
X342092D01*
X382388D02*
X384000D01*
X302080Y266240D02*
X304640Y268800D01*
X312320D01*
X285108Y266240D02*
X286720D01*
X236692Y268800D02*
X282548D01*
X285108Y266240D01*
X235520Y267628D02*
X236692Y268800D01*
X235520Y225280D02*
Y267628D01*
X394240Y184320D02*
Y271360D01*
Y184320D02*
X396410Y182150D01*
D22*
X446860Y228140D02*
D03*
X467160D02*
D03*
X457010Y304340D02*
D03*
D38*
X431610Y247190D02*
D03*
Y304340D02*
D03*
X482410Y247190D02*
D03*
Y304340D02*
D03*
D39*
X412160Y181760D02*
D03*
X286720Y266240D02*
D03*
X235520Y225280D02*
D03*
X394240Y271360D02*
D03*
X340480Y217600D02*
D03*
X384000D02*
D03*
X312320Y268800D02*
D03*
D40*
X320000Y220160D02*
D03*
X268800Y222720D02*
D03*
X358400D02*
D03*
M02*
