G04*
G04 #@! TF.GenerationSoftware,Altium Limited,Altium Designer,25.4.2 (15)*
G04*
G04 Layer_Color=8421504*
%FSLAX44Y44*%
%MOMM*%
G71*
G04*
G04 #@! TF.SameCoordinates,803F4C27-1115-4C0D-8F39-351A014CAFA1*
G04*
G04*
G04 #@! TF.FilePolarity,Positive*
G04*
G01*
G75*
%ADD16R,1.3000X4.0000*%
G04:AMPARAMS|DCode=17|XSize=0.8mm|YSize=1mm|CornerRadius=0.1mm|HoleSize=0mm|Usage=FLASHONLY|Rotation=270.000|XOffset=0mm|YOffset=0mm|HoleType=Round|Shape=RoundedRectangle|*
%AMROUNDEDRECTD17*
21,1,0.8000,0.8000,0,0,270.0*
21,1,0.6000,1.0000,0,0,270.0*
1,1,0.2000,-0.4000,-0.3000*
1,1,0.2000,-0.4000,0.3000*
1,1,0.2000,0.4000,0.3000*
1,1,0.2000,0.4000,-0.3000*
%
%ADD17ROUNDEDRECTD17*%
G04:AMPARAMS|DCode=18|XSize=0.8mm|YSize=1mm|CornerRadius=0.1mm|HoleSize=0mm|Usage=FLASHONLY|Rotation=180.000|XOffset=0mm|YOffset=0mm|HoleType=Round|Shape=RoundedRectangle|*
%AMROUNDEDRECTD18*
21,1,0.8000,0.8000,0,0,180.0*
21,1,0.6000,1.0000,0,0,180.0*
1,1,0.2000,-0.3000,0.4000*
1,1,0.2000,0.3000,0.4000*
1,1,0.2000,0.3000,-0.4000*
1,1,0.2000,-0.3000,-0.4000*
%
%ADD18ROUNDEDRECTD18*%
G04:AMPARAMS|DCode=19|XSize=0.6mm|YSize=1mm|CornerRadius=0.075mm|HoleSize=0mm|Usage=FLASHONLY|Rotation=90.000|XOffset=0mm|YOffset=0mm|HoleType=Round|Shape=RoundedRectangle|*
%AMROUNDEDRECTD19*
21,1,0.6000,0.8500,0,0,90.0*
21,1,0.4500,1.0000,0,0,90.0*
1,1,0.1500,0.4250,0.2250*
1,1,0.1500,0.4250,-0.2250*
1,1,0.1500,-0.4250,-0.2250*
1,1,0.1500,-0.4250,0.2250*
%
%ADD19ROUNDEDRECTD19*%
%ADD20R,4.2000X4.0000*%
G36*
X269940Y257320D02*
X254940D01*
X254680Y257330D01*
X254420Y257350D01*
X254160Y257380D01*
X253900Y257430D01*
X253650Y257490D01*
X253390Y257560D01*
X253150Y257650D01*
X252910Y257750D01*
X252670Y257860D01*
X252440Y257990D01*
X252220Y258130D01*
X252000Y258270D01*
X251790Y258430D01*
X251590Y258600D01*
X251400Y258780D01*
X251220Y258970D01*
X251050Y259170D01*
X250890Y259380D01*
X250750Y259600D01*
X250610Y259820D01*
X250480Y260050D01*
X250370Y260290D01*
X250270Y260530D01*
X250180Y260770D01*
X250110Y261030D01*
X250050Y261280D01*
X250000Y261540D01*
X249970Y261800D01*
X249950Y262060D01*
X249940Y262320D01*
X249950Y262580D01*
X249970Y262840D01*
X250000Y263100D01*
X250050Y263360D01*
X250110Y263610D01*
X250180Y263870D01*
X250270Y264110D01*
X250370Y264350D01*
X250480Y264590D01*
X250610Y264820D01*
X250750Y265040D01*
X250890Y265260D01*
X251050Y265470D01*
X251220Y265670D01*
X251400Y265860D01*
X251590Y266040D01*
X251790Y266210D01*
X252000Y266370D01*
X252220Y266510D01*
X252440Y266650D01*
X252670Y266780D01*
X252910Y266890D01*
X253150Y266990D01*
X253390Y267080D01*
X253650Y267150D01*
X253900Y267210D01*
X254160Y267260D01*
X254420Y267290D01*
X254680Y267310D01*
X254940Y267320D01*
X269940D01*
Y257320D01*
D02*
G37*
G36*
X284940Y239820D02*
X284930Y239560D01*
X284910Y239300D01*
X284880Y239040D01*
X284830Y238780D01*
X284770Y238530D01*
X284700Y238270D01*
X284610Y238030D01*
X284510Y237790D01*
X284400Y237550D01*
X284270Y237320D01*
X284130Y237100D01*
X283990Y236880D01*
X283830Y236670D01*
X283660Y236470D01*
X283480Y236280D01*
X283290Y236100D01*
X283090Y235930D01*
X282880Y235770D01*
X282660Y235630D01*
X282440Y235490D01*
X282210Y235360D01*
X281970Y235250D01*
X281730Y235150D01*
X281490Y235060D01*
X281230Y234990D01*
X280980Y234930D01*
X280720Y234880D01*
X280460Y234850D01*
X280200Y234830D01*
X279940Y234820D01*
X279680Y234830D01*
X279420Y234850D01*
X279160Y234880D01*
X278900Y234930D01*
X278650Y234990D01*
X278390Y235060D01*
X278150Y235150D01*
X277910Y235250D01*
X277670Y235360D01*
X277440Y235490D01*
X277220Y235630D01*
X277000Y235770D01*
X276790Y235930D01*
X276590Y236100D01*
X276400Y236280D01*
X276220Y236470D01*
X276050Y236670D01*
X275890Y236880D01*
X275750Y237100D01*
X275610Y237320D01*
X275480Y237550D01*
X275370Y237790D01*
X275270Y238030D01*
X275180Y238270D01*
X275110Y238530D01*
X275050Y238780D01*
X275000Y239040D01*
X274970Y239300D01*
X274950Y239560D01*
X274940Y239820D01*
Y254820D01*
X284940D01*
Y239820D01*
D02*
G37*
G36*
X299940D02*
X299930Y239560D01*
X299910Y239300D01*
X299880Y239040D01*
X299830Y238780D01*
X299770Y238530D01*
X299700Y238270D01*
X299610Y238030D01*
X299510Y237790D01*
X299400Y237550D01*
X299270Y237320D01*
X299130Y237100D01*
X298990Y236880D01*
X298830Y236670D01*
X298660Y236470D01*
X298480Y236280D01*
X298290Y236100D01*
X298090Y235930D01*
X297880Y235770D01*
X297660Y235630D01*
X297440Y235490D01*
X297210Y235360D01*
X296970Y235250D01*
X296730Y235150D01*
X296490Y235060D01*
X296230Y234990D01*
X295980Y234930D01*
X295720Y234880D01*
X295460Y234850D01*
X295200Y234830D01*
X294940Y234820D01*
X294680Y234830D01*
X294420Y234850D01*
X294160Y234880D01*
X293900Y234930D01*
X293650Y234990D01*
X293390Y235060D01*
X293150Y235150D01*
X292910Y235250D01*
X292670Y235360D01*
X292440Y235490D01*
X292220Y235630D01*
X292000Y235770D01*
X291790Y235930D01*
X291590Y236100D01*
X291400Y236280D01*
X291220Y236470D01*
X291050Y236670D01*
X290890Y236880D01*
X290750Y237100D01*
X290610Y237320D01*
X290480Y237550D01*
X290370Y237790D01*
X290270Y238030D01*
X290180Y238270D01*
X290110Y238530D01*
X290050Y238780D01*
X290000Y239040D01*
X289970Y239300D01*
X289950Y239560D01*
X289940Y239820D01*
Y254820D01*
X299940D01*
Y239820D01*
D02*
G37*
G36*
X314940D02*
X314930Y239560D01*
X314910Y239300D01*
X314880Y239040D01*
X314830Y238780D01*
X314770Y238530D01*
X314700Y238270D01*
X314610Y238030D01*
X314510Y237790D01*
X314400Y237550D01*
X314270Y237320D01*
X314130Y237100D01*
X313990Y236880D01*
X313830Y236670D01*
X313660Y236470D01*
X313480Y236280D01*
X313290Y236100D01*
X313090Y235930D01*
X312880Y235770D01*
X312660Y235630D01*
X312440Y235490D01*
X312210Y235360D01*
X311970Y235250D01*
X311730Y235150D01*
X311490Y235060D01*
X311230Y234990D01*
X310980Y234930D01*
X310720Y234880D01*
X310460Y234850D01*
X310200Y234830D01*
X309940Y234820D01*
X309680Y234830D01*
X309420Y234850D01*
X309160Y234880D01*
X308900Y234930D01*
X308650Y234990D01*
X308390Y235060D01*
X308150Y235150D01*
X307910Y235250D01*
X307670Y235360D01*
X307440Y235490D01*
X307220Y235630D01*
X307000Y235770D01*
X306790Y235930D01*
X306590Y236100D01*
X306400Y236280D01*
X306220Y236470D01*
X306050Y236670D01*
X305890Y236880D01*
X305750Y237100D01*
X305610Y237320D01*
X305480Y237550D01*
X305370Y237790D01*
X305270Y238030D01*
X305180Y238270D01*
X305110Y238530D01*
X305050Y238780D01*
X305000Y239040D01*
X304970Y239300D01*
X304950Y239560D01*
X304940Y239820D01*
Y254820D01*
X314940D01*
Y239820D01*
D02*
G37*
G36*
X269940Y272320D02*
X254940D01*
X254680Y272330D01*
X254420Y272350D01*
X254160Y272380D01*
X253900Y272430D01*
X253650Y272490D01*
X253390Y272560D01*
X253150Y272650D01*
X252910Y272750D01*
X252670Y272860D01*
X252440Y272990D01*
X252220Y273130D01*
X252000Y273270D01*
X251790Y273430D01*
X251590Y273600D01*
X251400Y273780D01*
X251220Y273970D01*
X251050Y274170D01*
X250890Y274380D01*
X250750Y274600D01*
X250610Y274820D01*
X250480Y275050D01*
X250370Y275290D01*
X250270Y275530D01*
X250180Y275770D01*
X250110Y276030D01*
X250050Y276280D01*
X250000Y276540D01*
X249970Y276800D01*
X249950Y277060D01*
X249940Y277320D01*
X249950Y277580D01*
X249970Y277840D01*
X250000Y278100D01*
X250050Y278360D01*
X250110Y278610D01*
X250180Y278870D01*
X250270Y279110D01*
X250370Y279350D01*
X250480Y279590D01*
X250610Y279820D01*
X250750Y280040D01*
X250890Y280260D01*
X251050Y280470D01*
X251220Y280670D01*
X251400Y280860D01*
X251590Y281040D01*
X251790Y281210D01*
X252000Y281370D01*
X252220Y281510D01*
X252440Y281650D01*
X252670Y281780D01*
X252910Y281890D01*
X253150Y281990D01*
X253390Y282080D01*
X253650Y282150D01*
X253900Y282210D01*
X254160Y282260D01*
X254420Y282290D01*
X254680Y282310D01*
X254940Y282320D01*
X269940D01*
Y272320D01*
D02*
G37*
G36*
Y287320D02*
X254940D01*
X254680Y287330D01*
X254420Y287350D01*
X254160Y287380D01*
X253900Y287430D01*
X253650Y287490D01*
X253390Y287560D01*
X253150Y287650D01*
X252910Y287750D01*
X252670Y287860D01*
X252440Y287990D01*
X252220Y288130D01*
X252000Y288270D01*
X251790Y288430D01*
X251590Y288600D01*
X251400Y288780D01*
X251220Y288970D01*
X251050Y289170D01*
X250890Y289380D01*
X250750Y289600D01*
X250610Y289820D01*
X250480Y290050D01*
X250370Y290290D01*
X250270Y290530D01*
X250180Y290770D01*
X250110Y291030D01*
X250050Y291280D01*
X250000Y291540D01*
X249970Y291800D01*
X249950Y292060D01*
X249940Y292320D01*
X249950Y292580D01*
X249970Y292840D01*
X250000Y293100D01*
X250050Y293360D01*
X250110Y293610D01*
X250180Y293870D01*
X250270Y294110D01*
X250370Y294350D01*
X250480Y294590D01*
X250610Y294820D01*
X250750Y295040D01*
X250890Y295260D01*
X251050Y295470D01*
X251220Y295670D01*
X251400Y295860D01*
X251590Y296040D01*
X251790Y296210D01*
X252000Y296370D01*
X252220Y296510D01*
X252440Y296650D01*
X252670Y296780D01*
X252910Y296890D01*
X253150Y296990D01*
X253390Y297080D01*
X253650Y297150D01*
X253900Y297210D01*
X254160Y297260D01*
X254420Y297290D01*
X254680Y297310D01*
X254940Y297320D01*
X269940D01*
Y287320D01*
D02*
G37*
G36*
Y302320D02*
X254940D01*
X254680Y302330D01*
X254420Y302350D01*
X254160Y302380D01*
X253900Y302430D01*
X253650Y302490D01*
X253390Y302560D01*
X253150Y302650D01*
X252910Y302750D01*
X252670Y302860D01*
X252440Y302990D01*
X252220Y303130D01*
X252000Y303270D01*
X251790Y303430D01*
X251590Y303600D01*
X251400Y303780D01*
X251220Y303970D01*
X251050Y304170D01*
X250890Y304380D01*
X250750Y304600D01*
X250610Y304820D01*
X250480Y305050D01*
X250370Y305290D01*
X250270Y305530D01*
X250180Y305770D01*
X250110Y306030D01*
X250050Y306280D01*
X250000Y306540D01*
X249970Y306800D01*
X249950Y307060D01*
X249940Y307320D01*
X249950Y307580D01*
X249970Y307840D01*
X250000Y308100D01*
X250050Y308360D01*
X250110Y308610D01*
X250180Y308870D01*
X250270Y309110D01*
X250370Y309350D01*
X250480Y309590D01*
X250610Y309820D01*
X250750Y310040D01*
X250890Y310260D01*
X251050Y310470D01*
X251220Y310670D01*
X251400Y310860D01*
X251590Y311040D01*
X251790Y311210D01*
X252000Y311370D01*
X252220Y311510D01*
X252440Y311650D01*
X252670Y311780D01*
X252910Y311890D01*
X253150Y311990D01*
X253390Y312080D01*
X253650Y312150D01*
X253900Y312210D01*
X254160Y312260D01*
X254420Y312290D01*
X254680Y312310D01*
X254940Y312320D01*
X269940D01*
Y302320D01*
D02*
G37*
G36*
X260940Y317320D02*
X254940D01*
X254680Y317330D01*
X254420Y317350D01*
X254160Y317380D01*
X253900Y317430D01*
X253650Y317490D01*
X253390Y317560D01*
X253150Y317650D01*
X252910Y317750D01*
X252670Y317860D01*
X252440Y317990D01*
X252220Y318130D01*
X252000Y318270D01*
X251790Y318430D01*
X251590Y318600D01*
X251400Y318780D01*
X251220Y318970D01*
X251050Y319170D01*
X250890Y319380D01*
X250750Y319600D01*
X250610Y319820D01*
X250480Y320050D01*
X250370Y320290D01*
X250270Y320530D01*
X250180Y320770D01*
X250110Y321030D01*
X250050Y321280D01*
X250000Y321540D01*
X249970Y321800D01*
X249950Y322060D01*
X249940Y322320D01*
X249950Y322580D01*
X249970Y322840D01*
X250000Y323100D01*
X250050Y323360D01*
X250110Y323610D01*
X250180Y323870D01*
X250270Y324110D01*
X250370Y324350D01*
X250480Y324590D01*
X250610Y324820D01*
X250750Y325040D01*
X250890Y325260D01*
X251050Y325470D01*
X251220Y325670D01*
X251400Y325860D01*
X251590Y326040D01*
X251790Y326210D01*
X252000Y326370D01*
X252220Y326510D01*
X252440Y326650D01*
X252670Y326780D01*
X252910Y326890D01*
X253150Y326990D01*
X253390Y327080D01*
X253650Y327150D01*
X253900Y327210D01*
X254160Y327260D01*
X254420Y327290D01*
X254680Y327310D01*
X254940Y327320D01*
X260940D01*
Y317320D01*
D02*
G37*
G36*
X329940Y239820D02*
X329930Y239560D01*
X329910Y239300D01*
X329880Y239040D01*
X329830Y238780D01*
X329770Y238530D01*
X329700Y238270D01*
X329610Y238030D01*
X329510Y237790D01*
X329400Y237550D01*
X329270Y237320D01*
X329130Y237100D01*
X328990Y236880D01*
X328830Y236670D01*
X328660Y236470D01*
X328480Y236280D01*
X328290Y236100D01*
X328090Y235930D01*
X327880Y235770D01*
X327660Y235630D01*
X327440Y235490D01*
X327210Y235360D01*
X326970Y235250D01*
X326730Y235150D01*
X326490Y235060D01*
X326230Y234990D01*
X325980Y234930D01*
X325720Y234880D01*
X325460Y234850D01*
X325200Y234830D01*
X324940Y234820D01*
X324680Y234830D01*
X324420Y234850D01*
X324160Y234880D01*
X323900Y234930D01*
X323650Y234990D01*
X323390Y235060D01*
X323150Y235150D01*
X322910Y235250D01*
X322670Y235360D01*
X322440Y235490D01*
X322220Y235630D01*
X322000Y235770D01*
X321790Y235930D01*
X321590Y236100D01*
X321400Y236280D01*
X321220Y236470D01*
X321050Y236670D01*
X320890Y236880D01*
X320750Y237100D01*
X320610Y237320D01*
X320480Y237550D01*
X320370Y237790D01*
X320270Y238030D01*
X320180Y238270D01*
X320110Y238530D01*
X320050Y238780D01*
X320000Y239040D01*
X319970Y239300D01*
X319950Y239560D01*
X319940Y239820D01*
Y254820D01*
X329940D01*
Y239820D01*
D02*
G37*
G36*
X344940D02*
X344930Y239560D01*
X344910Y239300D01*
X344880Y239040D01*
X344830Y238780D01*
X344770Y238530D01*
X344700Y238270D01*
X344610Y238030D01*
X344510Y237790D01*
X344400Y237550D01*
X344270Y237320D01*
X344130Y237100D01*
X343990Y236880D01*
X343830Y236670D01*
X343660Y236470D01*
X343480Y236280D01*
X343290Y236100D01*
X343090Y235930D01*
X342880Y235770D01*
X342660Y235630D01*
X342440Y235490D01*
X342210Y235360D01*
X341970Y235250D01*
X341730Y235150D01*
X341490Y235060D01*
X341230Y234990D01*
X340980Y234930D01*
X340720Y234880D01*
X340460Y234850D01*
X340200Y234830D01*
X339940Y234820D01*
X339680Y234830D01*
X339420Y234850D01*
X339160Y234880D01*
X338900Y234930D01*
X338650Y234990D01*
X338390Y235060D01*
X338150Y235150D01*
X337910Y235250D01*
X337670Y235360D01*
X337440Y235490D01*
X337220Y235630D01*
X337000Y235770D01*
X336790Y235930D01*
X336590Y236100D01*
X336400Y236280D01*
X336220Y236470D01*
X336050Y236670D01*
X335890Y236880D01*
X335750Y237100D01*
X335610Y237320D01*
X335480Y237550D01*
X335370Y237790D01*
X335270Y238030D01*
X335180Y238270D01*
X335110Y238530D01*
X335050Y238780D01*
X335000Y239040D01*
X334970Y239300D01*
X334950Y239560D01*
X334940Y239820D01*
Y254820D01*
X344940D01*
Y239820D01*
D02*
G37*
G36*
X359940D02*
X359930Y239560D01*
X359910Y239300D01*
X359880Y239040D01*
X359830Y238780D01*
X359770Y238530D01*
X359700Y238270D01*
X359610Y238030D01*
X359510Y237790D01*
X359400Y237550D01*
X359270Y237320D01*
X359130Y237100D01*
X358990Y236880D01*
X358830Y236670D01*
X358660Y236470D01*
X358480Y236280D01*
X358290Y236100D01*
X358090Y235930D01*
X357880Y235770D01*
X357660Y235630D01*
X357440Y235490D01*
X357210Y235360D01*
X356970Y235250D01*
X356730Y235150D01*
X356490Y235060D01*
X356230Y234990D01*
X355980Y234930D01*
X355720Y234880D01*
X355460Y234850D01*
X355200Y234830D01*
X354940Y234820D01*
X354680Y234830D01*
X354420Y234850D01*
X354160Y234880D01*
X353900Y234930D01*
X353650Y234990D01*
X353390Y235060D01*
X353150Y235150D01*
X352910Y235250D01*
X352670Y235360D01*
X352440Y235490D01*
X352220Y235630D01*
X352000Y235770D01*
X351790Y235930D01*
X351590Y236100D01*
X351400Y236280D01*
X351220Y236470D01*
X351050Y236670D01*
X350890Y236880D01*
X350750Y237100D01*
X350610Y237320D01*
X350480Y237550D01*
X350370Y237790D01*
X350270Y238030D01*
X350180Y238270D01*
X350110Y238530D01*
X350050Y238780D01*
X350000Y239040D01*
X349970Y239300D01*
X349950Y239560D01*
X349940Y239820D01*
Y254820D01*
X359940D01*
Y239820D01*
D02*
G37*
G36*
X380200Y267310D02*
X380460Y267290D01*
X380720Y267260D01*
X380980Y267210D01*
X381230Y267150D01*
X381490Y267080D01*
X381730Y266990D01*
X381970Y266890D01*
X382210Y266780D01*
X382440Y266650D01*
X382660Y266510D01*
X382880Y266370D01*
X383090Y266210D01*
X383290Y266040D01*
X383480Y265860D01*
X383660Y265670D01*
X383830Y265470D01*
X383990Y265260D01*
X384130Y265040D01*
X384270Y264820D01*
X384400Y264590D01*
X384510Y264350D01*
X384610Y264110D01*
X384700Y263870D01*
X384770Y263610D01*
X384830Y263360D01*
X384880Y263100D01*
X384910Y262840D01*
X384930Y262580D01*
X384940Y262320D01*
X384930Y262060D01*
X384910Y261800D01*
X384880Y261540D01*
X384830Y261280D01*
X384770Y261030D01*
X384700Y260770D01*
X384610Y260530D01*
X384510Y260290D01*
X384400Y260050D01*
X384270Y259820D01*
X384130Y259600D01*
X383990Y259380D01*
X383830Y259170D01*
X383660Y258970D01*
X383480Y258780D01*
X383290Y258600D01*
X383090Y258430D01*
X382880Y258270D01*
X382660Y258130D01*
X382440Y257990D01*
X382210Y257860D01*
X381970Y257750D01*
X381730Y257650D01*
X381490Y257560D01*
X381230Y257490D01*
X380980Y257430D01*
X380720Y257380D01*
X380460Y257350D01*
X380200Y257330D01*
X379940Y257320D01*
X364940D01*
Y267320D01*
X379940D01*
X380200Y267310D01*
D02*
G37*
G36*
Y282310D02*
X380460Y282290D01*
X380720Y282260D01*
X380980Y282210D01*
X381230Y282150D01*
X381490Y282080D01*
X381730Y281990D01*
X381970Y281890D01*
X382210Y281780D01*
X382440Y281650D01*
X382660Y281510D01*
X382880Y281370D01*
X383090Y281210D01*
X383290Y281040D01*
X383480Y280860D01*
X383660Y280670D01*
X383830Y280470D01*
X383990Y280260D01*
X384130Y280040D01*
X384270Y279820D01*
X384400Y279590D01*
X384510Y279350D01*
X384610Y279110D01*
X384700Y278870D01*
X384770Y278610D01*
X384830Y278360D01*
X384880Y278100D01*
X384910Y277840D01*
X384930Y277580D01*
X384940Y277320D01*
X384930Y277060D01*
X384910Y276800D01*
X384880Y276540D01*
X384830Y276280D01*
X384770Y276030D01*
X384700Y275770D01*
X384610Y275530D01*
X384510Y275290D01*
X384400Y275050D01*
X384270Y274820D01*
X384130Y274600D01*
X383990Y274380D01*
X383830Y274170D01*
X383660Y273970D01*
X383480Y273780D01*
X383290Y273600D01*
X383090Y273430D01*
X382880Y273270D01*
X382660Y273130D01*
X382440Y272990D01*
X382210Y272860D01*
X381970Y272750D01*
X381730Y272650D01*
X381490Y272560D01*
X381230Y272490D01*
X380980Y272430D01*
X380720Y272380D01*
X380460Y272350D01*
X380200Y272330D01*
X379940Y272320D01*
X364940D01*
Y282320D01*
X379940D01*
X380200Y282310D01*
D02*
G37*
G36*
Y297310D02*
X380460Y297290D01*
X380720Y297260D01*
X380980Y297210D01*
X381230Y297150D01*
X381490Y297080D01*
X381730Y296990D01*
X381970Y296890D01*
X382210Y296780D01*
X382440Y296650D01*
X382660Y296510D01*
X382880Y296370D01*
X383090Y296210D01*
X383290Y296040D01*
X383480Y295860D01*
X383660Y295670D01*
X383830Y295470D01*
X383990Y295260D01*
X384130Y295040D01*
X384270Y294820D01*
X384400Y294590D01*
X384510Y294350D01*
X384610Y294110D01*
X384700Y293870D01*
X384770Y293610D01*
X384830Y293360D01*
X384880Y293100D01*
X384910Y292840D01*
X384930Y292580D01*
X384940Y292320D01*
X384930Y292060D01*
X384910Y291800D01*
X384880Y291540D01*
X384830Y291280D01*
X384770Y291030D01*
X384700Y290770D01*
X384610Y290530D01*
X384510Y290290D01*
X384400Y290050D01*
X384270Y289820D01*
X384130Y289600D01*
X383990Y289380D01*
X383830Y289170D01*
X383660Y288970D01*
X383480Y288780D01*
X383290Y288600D01*
X383090Y288430D01*
X382880Y288270D01*
X382660Y288130D01*
X382440Y287990D01*
X382210Y287860D01*
X381970Y287750D01*
X381730Y287650D01*
X381490Y287560D01*
X381230Y287490D01*
X380980Y287430D01*
X380720Y287380D01*
X380460Y287350D01*
X380200Y287330D01*
X379940Y287320D01*
X364940D01*
Y297320D01*
X379940D01*
X380200Y297310D01*
D02*
G37*
G36*
Y312310D02*
X380460Y312290D01*
X380720Y312260D01*
X380980Y312210D01*
X381230Y312150D01*
X381490Y312080D01*
X381730Y311990D01*
X381970Y311890D01*
X382210Y311780D01*
X382440Y311650D01*
X382660Y311510D01*
X382880Y311370D01*
X383090Y311210D01*
X383290Y311040D01*
X383480Y310860D01*
X383660Y310670D01*
X383830Y310470D01*
X383990Y310260D01*
X384130Y310040D01*
X384270Y309820D01*
X384400Y309590D01*
X384510Y309350D01*
X384610Y309110D01*
X384700Y308870D01*
X384770Y308610D01*
X384830Y308360D01*
X384880Y308100D01*
X384910Y307840D01*
X384930Y307580D01*
X384940Y307320D01*
X384930Y307060D01*
X384910Y306800D01*
X384880Y306540D01*
X384830Y306280D01*
X384770Y306030D01*
X384700Y305770D01*
X384610Y305530D01*
X384510Y305290D01*
X384400Y305050D01*
X384270Y304820D01*
X384130Y304600D01*
X383990Y304380D01*
X383830Y304170D01*
X383660Y303970D01*
X383480Y303780D01*
X383290Y303600D01*
X383090Y303430D01*
X382880Y303270D01*
X382660Y303130D01*
X382440Y302990D01*
X382210Y302860D01*
X381970Y302750D01*
X381730Y302650D01*
X381490Y302560D01*
X381230Y302490D01*
X380980Y302430D01*
X380720Y302380D01*
X380460Y302350D01*
X380200Y302330D01*
X379940Y302320D01*
X364940D01*
Y312320D01*
X379940D01*
X380200Y312310D01*
D02*
G37*
G36*
Y327310D02*
X380460Y327290D01*
X380720Y327260D01*
X380980Y327210D01*
X381230Y327150D01*
X381490Y327080D01*
X381730Y326990D01*
X381970Y326890D01*
X382210Y326780D01*
X382440Y326650D01*
X382660Y326510D01*
X382880Y326370D01*
X383090Y326210D01*
X383290Y326040D01*
X383480Y325860D01*
X383660Y325670D01*
X383830Y325470D01*
X383990Y325260D01*
X384130Y325040D01*
X384270Y324820D01*
X384400Y324590D01*
X384510Y324350D01*
X384610Y324110D01*
X384700Y323870D01*
X384770Y323610D01*
X384830Y323360D01*
X384880Y323100D01*
X384910Y322840D01*
X384930Y322580D01*
X384940Y322320D01*
X384930Y322060D01*
X384910Y321800D01*
X384880Y321540D01*
X384830Y321280D01*
X384770Y321030D01*
X384700Y320770D01*
X384610Y320530D01*
X384510Y320290D01*
X384400Y320050D01*
X384270Y319820D01*
X384130Y319600D01*
X383990Y319380D01*
X383830Y319170D01*
X383660Y318970D01*
X383480Y318780D01*
X383290Y318600D01*
X383090Y318430D01*
X382880Y318270D01*
X382660Y318130D01*
X382440Y317990D01*
X382210Y317860D01*
X381970Y317750D01*
X381730Y317650D01*
X381490Y317560D01*
X381230Y317490D01*
X380980Y317430D01*
X380720Y317380D01*
X380460Y317350D01*
X380200Y317330D01*
X379940Y317320D01*
X364940D01*
Y327320D01*
X379940D01*
X380200Y327310D01*
D02*
G37*
D16*
X265120Y79360D02*
D03*
X385120D02*
D03*
D17*
X320000Y179380D02*
D03*
Y194380D02*
D03*
X360960D02*
D03*
Y179380D02*
D03*
X268800Y194380D02*
D03*
Y179380D02*
D03*
D18*
X430260Y125440D02*
D03*
X445260D02*
D03*
X235340Y15360D02*
D03*
X220340D02*
D03*
X427700Y17920D02*
D03*
X442700D02*
D03*
X133300Y10240D02*
D03*
X148300D02*
D03*
D19*
X425200Y71680D02*
D03*
X445200Y81180D02*
D03*
Y62180D02*
D03*
D20*
X117760Y62360D02*
D03*
Y352360D02*
D03*
M02*
