G04*
G04 #@! TF.GenerationSoftware,Altium Limited,Altium Designer,25.4.2 (15)*
G04*
G04 Layer_Color=65535*
%FSLAX44Y44*%
%MOMM*%
G71*
G04*
G04 #@! TF.SameCoordinates,803F4C27-1115-4C0D-8F39-351A014CAFA1*
G04*
G04*
G04 #@! TF.FilePolarity,Positive*
G04*
G01*
G75*
%ADD10C,0.2400*%
%ADD11C,0.2000*%
%ADD12C,0.1270*%
%ADD13C,0.7500*%
%ADD14C,0.5000*%
%ADD15C,0.2540*%
G36*
X465539Y336207D02*
Y336193D01*
Y336151D01*
Y336095D01*
Y336010D01*
X465525Y335897D01*
Y335784D01*
X465497Y335517D01*
X465469Y335206D01*
X465412Y334882D01*
X465328Y334586D01*
X465229Y334304D01*
Y334290D01*
X465215Y334276D01*
X465173Y334191D01*
X465102Y334079D01*
X465004Y333923D01*
X464863Y333768D01*
X464708Y333599D01*
X464510Y333430D01*
X464285Y333289D01*
X464257Y333275D01*
X464172Y333233D01*
X464045Y333176D01*
X463862Y333120D01*
X463636Y333050D01*
X463382Y332993D01*
X463101Y332951D01*
X462790Y332937D01*
X462664D01*
X462579Y332951D01*
X462466Y332965D01*
X462354Y332979D01*
X462057Y333035D01*
X461747Y333120D01*
X461423Y333247D01*
X461254Y333331D01*
X461099Y333430D01*
X460958Y333543D01*
X460817Y333670D01*
X460803Y333684D01*
X460789Y333698D01*
X460760Y333754D01*
X460718Y333811D01*
X460662Y333881D01*
X460605Y333980D01*
X460549Y334093D01*
X460479Y334220D01*
X460422Y334361D01*
X460366Y334530D01*
X460309Y334699D01*
X460253Y334896D01*
X460225Y335108D01*
X460182Y335347D01*
X460168Y335587D01*
Y335855D01*
X461339Y336024D01*
Y336010D01*
Y335982D01*
Y335925D01*
X461353Y335841D01*
X461367Y335756D01*
Y335657D01*
X461409Y335418D01*
X461451Y335164D01*
X461536Y334910D01*
X461620Y334685D01*
X461677Y334586D01*
X461747Y334501D01*
X461761Y334487D01*
X461818Y334445D01*
X461902Y334375D01*
X462015Y334304D01*
X462170Y334220D01*
X462339Y334163D01*
X462551Y334107D01*
X462776Y334093D01*
X462861D01*
X462946Y334107D01*
X463072Y334121D01*
X463199Y334149D01*
X463340Y334177D01*
X463481Y334234D01*
X463622Y334304D01*
X463636Y334318D01*
X463679Y334346D01*
X463735Y334403D01*
X463820Y334459D01*
X463890Y334558D01*
X463975Y334657D01*
X464045Y334769D01*
X464101Y334910D01*
Y334924D01*
X464130Y334981D01*
X464144Y335079D01*
X464172Y335206D01*
X464200Y335376D01*
X464214Y335587D01*
X464243Y335841D01*
Y336137D01*
Y342861D01*
X465539D01*
Y336207D01*
D02*
G37*
G36*
X471672Y333106D02*
X470473D01*
Y340732D01*
X470459Y340718D01*
X470389Y340662D01*
X470304Y340577D01*
X470163Y340479D01*
X470008Y340352D01*
X469811Y340211D01*
X469585Y340056D01*
X469332Y339901D01*
X469317D01*
X469303Y339887D01*
X469219Y339830D01*
X469078Y339760D01*
X468909Y339675D01*
X468711Y339576D01*
X468500Y339478D01*
X468288Y339379D01*
X468077Y339295D01*
Y340450D01*
X468091D01*
X468119Y340479D01*
X468176Y340493D01*
X468246Y340535D01*
X468331Y340577D01*
X468429Y340634D01*
X468669Y340775D01*
X468951Y340930D01*
X469233Y341127D01*
X469529Y341353D01*
X469825Y341592D01*
X469839Y341606D01*
X469853Y341620D01*
X469895Y341663D01*
X469952Y341705D01*
X470079Y341846D01*
X470248Y342015D01*
X470417Y342212D01*
X470600Y342438D01*
X470755Y342664D01*
X470896Y342903D01*
X471672D01*
Y333106D01*
D02*
G37*
G36*
X307063Y186645D02*
X307176Y186630D01*
X307317Y186616D01*
X307472Y186588D01*
X307627Y186560D01*
X307994Y186461D01*
X308360Y186320D01*
X308543Y186236D01*
X308727Y186137D01*
X308896Y186010D01*
X309051Y185869D01*
X309065Y185855D01*
X309093Y185841D01*
X309121Y185785D01*
X309178Y185728D01*
X309248Y185658D01*
X309319Y185559D01*
X309389Y185460D01*
X309474Y185334D01*
X309615Y185066D01*
X309756Y184727D01*
X309812Y184558D01*
X309840Y184361D01*
X309869Y184164D01*
X309883Y183952D01*
Y183924D01*
Y183853D01*
X309869Y183741D01*
X309855Y183586D01*
X309826Y183416D01*
X309770Y183219D01*
X309713Y183008D01*
X309629Y182796D01*
X309615Y182768D01*
X309587Y182698D01*
X309530Y182585D01*
X309446Y182430D01*
X309333Y182260D01*
X309192Y182049D01*
X309023Y181838D01*
X308825Y181598D01*
X308797Y181570D01*
X308727Y181485D01*
X308656Y181415D01*
X308586Y181344D01*
X308501Y181260D01*
X308388Y181147D01*
X308276Y181034D01*
X308135Y180907D01*
X307994Y180766D01*
X307824Y180611D01*
X307641Y180456D01*
X307444Y180273D01*
X307218Y180089D01*
X306993Y179892D01*
X306979Y179878D01*
X306950Y179850D01*
X306894Y179808D01*
X306824Y179751D01*
X306739Y179667D01*
X306640Y179582D01*
X306415Y179399D01*
X306175Y179187D01*
X305950Y178976D01*
X305752Y178793D01*
X305668Y178722D01*
X305597Y178652D01*
X305583Y178638D01*
X305541Y178595D01*
X305484Y178539D01*
X305414Y178454D01*
X305343Y178356D01*
X305259Y178257D01*
X305090Y178017D01*
X309897D01*
Y176861D01*
X303426D01*
Y176875D01*
Y176932D01*
Y177016D01*
X303440Y177129D01*
X303454Y177256D01*
X303483Y177397D01*
X303511Y177538D01*
X303567Y177693D01*
Y177707D01*
X303581Y177721D01*
X303610Y177806D01*
X303666Y177933D01*
X303750Y178102D01*
X303863Y178299D01*
X304004Y178525D01*
X304159Y178750D01*
X304357Y178990D01*
Y179004D01*
X304385Y179018D01*
X304455Y179103D01*
X304582Y179230D01*
X304765Y179413D01*
X304977Y179624D01*
X305245Y179878D01*
X305569Y180160D01*
X305921Y180456D01*
X305935Y180470D01*
X305992Y180512D01*
X306077Y180583D01*
X306175Y180667D01*
X306302Y180780D01*
X306457Y180907D01*
X306612Y181048D01*
X306795Y181203D01*
X307148Y181542D01*
X307500Y181880D01*
X307670Y182049D01*
X307824Y182218D01*
X307966Y182373D01*
X308078Y182528D01*
Y182542D01*
X308106Y182556D01*
X308135Y182599D01*
X308163Y182655D01*
X308262Y182810D01*
X308374Y182994D01*
X308473Y183219D01*
X308572Y183459D01*
X308628Y183727D01*
X308656Y183980D01*
Y183994D01*
Y184009D01*
X308642Y184093D01*
X308628Y184234D01*
X308586Y184389D01*
X308529Y184587D01*
X308431Y184784D01*
X308304Y184981D01*
X308135Y185179D01*
X308106Y185207D01*
X308036Y185263D01*
X307937Y185334D01*
X307782Y185432D01*
X307585Y185517D01*
X307359Y185602D01*
X307092Y185658D01*
X306795Y185672D01*
X306711D01*
X306654Y185658D01*
X306485Y185644D01*
X306288Y185602D01*
X306077Y185545D01*
X305837Y185446D01*
X305611Y185319D01*
X305400Y185150D01*
X305372Y185122D01*
X305315Y185052D01*
X305231Y184939D01*
X305146Y184770D01*
X305047Y184572D01*
X304963Y184319D01*
X304907Y184037D01*
X304878Y183713D01*
X303652Y183839D01*
Y183853D01*
X303666Y183896D01*
Y183966D01*
X303680Y184065D01*
X303708Y184178D01*
X303736Y184305D01*
X303779Y184460D01*
X303821Y184615D01*
X303934Y184953D01*
X304103Y185291D01*
X304202Y185460D01*
X304328Y185630D01*
X304455Y185785D01*
X304596Y185926D01*
X304610Y185940D01*
X304639Y185954D01*
X304681Y185996D01*
X304751Y186038D01*
X304836Y186095D01*
X304935Y186151D01*
X305047Y186222D01*
X305188Y186292D01*
X305343Y186363D01*
X305513Y186433D01*
X305696Y186490D01*
X305893Y186546D01*
X306105Y186588D01*
X306330Y186630D01*
X306570Y186645D01*
X306824Y186659D01*
X306965D01*
X307063Y186645D01*
D02*
G37*
G36*
X298901Y186602D02*
X299028D01*
X299324Y186588D01*
X299634Y186546D01*
X299972Y186504D01*
X300283Y186433D01*
X300438Y186391D01*
X300565Y186349D01*
X300579D01*
X300593Y186334D01*
X300677Y186292D01*
X300804Y186236D01*
X300959Y186137D01*
X301129Y186010D01*
X301312Y185841D01*
X301481Y185644D01*
X301650Y185418D01*
Y185404D01*
X301664Y185390D01*
X301721Y185305D01*
X301777Y185165D01*
X301861Y184981D01*
X301932Y184770D01*
X302003Y184516D01*
X302045Y184248D01*
X302059Y183952D01*
Y183938D01*
Y183910D01*
Y183853D01*
X302045Y183783D01*
Y183684D01*
X302031Y183586D01*
X301974Y183346D01*
X301890Y183064D01*
X301777Y182768D01*
X301608Y182472D01*
X301495Y182331D01*
X301382Y182190D01*
X301368Y182176D01*
X301354Y182162D01*
X301312Y182120D01*
X301255Y182077D01*
X301185Y182021D01*
X301100Y181964D01*
X300987Y181894D01*
X300875Y181809D01*
X300734Y181739D01*
X300579Y181668D01*
X300410Y181584D01*
X300226Y181513D01*
X300015Y181457D01*
X299803Y181387D01*
X299564Y181344D01*
X299310Y181302D01*
X299338Y181288D01*
X299394Y181260D01*
X299479Y181203D01*
X299592Y181147D01*
X299846Y180992D01*
X299972Y180893D01*
X300085Y180809D01*
X300114Y180780D01*
X300184Y180710D01*
X300297Y180597D01*
X300438Y180456D01*
X300593Y180259D01*
X300776Y180047D01*
X300959Y179793D01*
X301157Y179512D01*
X302834Y176861D01*
X301227D01*
X299944Y178891D01*
Y178905D01*
X299916Y178934D01*
X299888Y178976D01*
X299846Y179032D01*
X299747Y179187D01*
X299620Y179385D01*
X299465Y179596D01*
X299310Y179822D01*
X299155Y180033D01*
X299014Y180231D01*
X299000Y180245D01*
X298958Y180301D01*
X298887Y180386D01*
X298788Y180484D01*
X298577Y180696D01*
X298464Y180794D01*
X298351Y180879D01*
X298337Y180893D01*
X298309Y180907D01*
X298253Y180935D01*
X298168Y180978D01*
X298083Y181020D01*
X297985Y181062D01*
X297759Y181133D01*
X297745D01*
X297717Y181147D01*
X297661D01*
X297590Y181161D01*
X297491Y181175D01*
X297379D01*
X297224Y181189D01*
X295560D01*
Y176861D01*
X294263D01*
Y186616D01*
X298788D01*
X298901Y186602D01*
D02*
G37*
G36*
X379156Y191913D02*
X379283Y191898D01*
X379438Y191884D01*
X379593Y191870D01*
X379777Y191828D01*
X380157Y191744D01*
X380580Y191617D01*
X380792Y191532D01*
X380989Y191433D01*
X381186Y191306D01*
X381384Y191180D01*
X381398Y191166D01*
X381426Y191151D01*
X381482Y191109D01*
X381553Y191039D01*
X381623Y190968D01*
X381722Y190869D01*
X381821Y190757D01*
X381933Y190644D01*
X382046Y190503D01*
X382159Y190334D01*
X382286Y190165D01*
X382399Y189981D01*
X382497Y189770D01*
X382610Y189558D01*
X382695Y189333D01*
X382779Y189079D01*
X381511Y188783D01*
Y188797D01*
X381496Y188825D01*
X381468Y188882D01*
X381440Y188952D01*
X381412Y189037D01*
X381370Y189150D01*
X381257Y189375D01*
X381116Y189629D01*
X380947Y189883D01*
X380735Y190122D01*
X380510Y190334D01*
X380481Y190362D01*
X380397Y190418D01*
X380256Y190489D01*
X380073Y190588D01*
X379833Y190672D01*
X379565Y190757D01*
X379241Y190813D01*
X378888Y190827D01*
X378776D01*
X378705Y190813D01*
X378606D01*
X378494Y190799D01*
X378226Y190757D01*
X377930Y190700D01*
X377620Y190602D01*
X377295Y190461D01*
X376999Y190277D01*
X376985D01*
X376971Y190249D01*
X376873Y190179D01*
X376746Y190066D01*
X376591Y189897D01*
X376407Y189685D01*
X376238Y189446D01*
X376083Y189150D01*
X375942Y188825D01*
Y188811D01*
X375928Y188783D01*
X375914Y188741D01*
X375900Y188670D01*
X375872Y188586D01*
X375844Y188487D01*
X375801Y188247D01*
X375745Y187966D01*
X375688Y187655D01*
X375660Y187317D01*
X375646Y186950D01*
Y186936D01*
Y186894D01*
Y186824D01*
Y186739D01*
X375660Y186640D01*
Y186514D01*
X375674Y186373D01*
X375688Y186217D01*
X375731Y185879D01*
X375801Y185513D01*
X375886Y185146D01*
X375999Y184779D01*
Y184765D01*
X376013Y184737D01*
X376041Y184695D01*
X376069Y184625D01*
X376154Y184455D01*
X376281Y184258D01*
X376436Y184032D01*
X376633Y183793D01*
X376858Y183581D01*
X377126Y183384D01*
X377140D01*
X377169Y183370D01*
X377211Y183342D01*
X377267Y183314D01*
X377338Y183285D01*
X377422Y183243D01*
X377620Y183158D01*
X377873Y183074D01*
X378155Y183003D01*
X378465Y182947D01*
X378790Y182933D01*
X378888D01*
X378973Y182947D01*
X379072D01*
X379170Y182961D01*
X379424Y183017D01*
X379720Y183088D01*
X380016Y183201D01*
X380326Y183356D01*
X380481Y183440D01*
X380622Y183553D01*
X380636Y183567D01*
X380651Y183581D01*
X380693Y183624D01*
X380749Y183666D01*
X380806Y183736D01*
X380876Y183821D01*
X380961Y183906D01*
X381031Y184018D01*
X381116Y184145D01*
X381214Y184286D01*
X381299Y184427D01*
X381384Y184596D01*
X381454Y184779D01*
X381525Y184977D01*
X381595Y185188D01*
X381651Y185414D01*
X382948Y185090D01*
Y185076D01*
X382934Y185019D01*
X382906Y184935D01*
X382864Y184822D01*
X382822Y184695D01*
X382765Y184540D01*
X382695Y184371D01*
X382610Y184188D01*
X382413Y183793D01*
X382159Y183398D01*
X382004Y183201D01*
X381849Y183003D01*
X381680Y182834D01*
X381482Y182665D01*
X381468Y182651D01*
X381440Y182623D01*
X381370Y182595D01*
X381299Y182538D01*
X381186Y182468D01*
X381073Y182397D01*
X380918Y182327D01*
X380763Y182256D01*
X380580Y182172D01*
X380383Y182101D01*
X380171Y182031D01*
X379946Y181960D01*
X379706Y181904D01*
X379452Y181876D01*
X379184Y181847D01*
X378903Y181833D01*
X378747D01*
X378635Y181847D01*
X378508D01*
X378353Y181861D01*
X378184Y181890D01*
X377986Y181918D01*
X377577Y181988D01*
X377155Y182101D01*
X376732Y182256D01*
X376534Y182355D01*
X376337Y182468D01*
X376323Y182482D01*
X376295Y182496D01*
X376238Y182538D01*
X376182Y182595D01*
X376097Y182651D01*
X375999Y182736D01*
X375886Y182834D01*
X375773Y182947D01*
X375660Y183074D01*
X375533Y183201D01*
X375280Y183525D01*
X375040Y183906D01*
X374828Y184328D01*
Y184342D01*
X374800Y184385D01*
X374786Y184455D01*
X374744Y184540D01*
X374716Y184653D01*
X374673Y184794D01*
X374617Y184949D01*
X374575Y185118D01*
X374533Y185301D01*
X374476Y185513D01*
X374406Y185950D01*
X374349Y186443D01*
X374321Y186950D01*
Y186965D01*
Y187021D01*
Y187106D01*
X374335Y187204D01*
Y187345D01*
X374349Y187486D01*
X374363Y187669D01*
X374392Y187853D01*
X374462Y188262D01*
X374561Y188713D01*
X374702Y189164D01*
X374899Y189601D01*
X374913Y189615D01*
X374927Y189657D01*
X374955Y189713D01*
X375012Y189784D01*
X375068Y189883D01*
X375139Y189995D01*
X375322Y190249D01*
X375562Y190531D01*
X375844Y190813D01*
X376168Y191095D01*
X376548Y191335D01*
X376562Y191349D01*
X376605Y191363D01*
X376661Y191391D01*
X376732Y191433D01*
X376844Y191476D01*
X376957Y191518D01*
X377098Y191574D01*
X377253Y191631D01*
X377422Y191687D01*
X377606Y191744D01*
X378000Y191828D01*
X378451Y191898D01*
X378917Y191927D01*
X379058D01*
X379156Y191913D01*
D02*
G37*
G36*
X388559Y182002D02*
X387361D01*
Y189629D01*
X387347Y189615D01*
X387276Y189558D01*
X387192Y189474D01*
X387051Y189375D01*
X386895Y189248D01*
X386698Y189107D01*
X386473Y188952D01*
X386219Y188797D01*
X386205D01*
X386191Y188783D01*
X386106Y188727D01*
X385965Y188656D01*
X385796Y188572D01*
X385599Y188473D01*
X385387Y188374D01*
X385176Y188276D01*
X384964Y188191D01*
Y189347D01*
X384978D01*
X385006Y189375D01*
X385063Y189389D01*
X385133Y189431D01*
X385218Y189474D01*
X385317Y189530D01*
X385556Y189671D01*
X385838Y189826D01*
X386120Y190024D01*
X386416Y190249D01*
X386712Y190489D01*
X386726Y190503D01*
X386740Y190517D01*
X386783Y190559D01*
X386839Y190602D01*
X386966Y190743D01*
X387135Y190912D01*
X387304Y191109D01*
X387488Y191335D01*
X387643Y191560D01*
X387784Y191800D01*
X388559D01*
Y182002D01*
D02*
G37*
G36*
X475180Y121442D02*
X476505D01*
Y120343D01*
X475180D01*
Y118002D01*
X473982D01*
Y120343D01*
X469738D01*
Y121442D01*
X474207Y127758D01*
X475180D01*
Y121442D01*
D02*
G37*
G36*
X465453Y127744D02*
X465580D01*
X465876Y127729D01*
X466186Y127687D01*
X466524Y127645D01*
X466834Y127574D01*
X466990Y127532D01*
X467116Y127490D01*
X467131D01*
X467145Y127476D01*
X467229Y127433D01*
X467356Y127377D01*
X467511Y127278D01*
X467680Y127151D01*
X467864Y126982D01*
X468033Y126785D01*
X468202Y126559D01*
Y126545D01*
X468216Y126531D01*
X468272Y126447D01*
X468329Y126306D01*
X468413Y126122D01*
X468484Y125911D01*
X468554Y125657D01*
X468597Y125389D01*
X468611Y125093D01*
Y125079D01*
Y125051D01*
Y124994D01*
X468597Y124924D01*
Y124825D01*
X468582Y124727D01*
X468526Y124487D01*
X468442Y124205D01*
X468329Y123909D01*
X468160Y123613D01*
X468047Y123472D01*
X467934Y123331D01*
X467920Y123317D01*
X467906Y123303D01*
X467864Y123261D01*
X467807Y123218D01*
X467737Y123162D01*
X467652Y123105D01*
X467539Y123035D01*
X467426Y122950D01*
X467286Y122880D01*
X467131Y122809D01*
X466961Y122725D01*
X466778Y122654D01*
X466567Y122598D01*
X466355Y122528D01*
X466115Y122485D01*
X465862Y122443D01*
X465890Y122429D01*
X465946Y122401D01*
X466031Y122344D01*
X466144Y122288D01*
X466397Y122133D01*
X466524Y122034D01*
X466637Y121950D01*
X466665Y121921D01*
X466736Y121851D01*
X466848Y121738D01*
X466990Y121597D01*
X467145Y121400D01*
X467328Y121188D01*
X467511Y120935D01*
X467709Y120653D01*
X469386Y118002D01*
X467779D01*
X466496Y120032D01*
Y120047D01*
X466468Y120075D01*
X466440Y120117D01*
X466397Y120173D01*
X466299Y120328D01*
X466172Y120526D01*
X466017Y120737D01*
X465862Y120963D01*
X465707Y121174D01*
X465566Y121372D01*
X465552Y121386D01*
X465509Y121442D01*
X465439Y121527D01*
X465340Y121625D01*
X465129Y121837D01*
X465016Y121936D01*
X464903Y122020D01*
X464889Y122034D01*
X464861Y122048D01*
X464804Y122077D01*
X464720Y122119D01*
X464635Y122161D01*
X464537Y122203D01*
X464311Y122274D01*
X464297D01*
X464269Y122288D01*
X464212D01*
X464142Y122302D01*
X464043Y122316D01*
X463931D01*
X463775Y122330D01*
X462112D01*
Y118002D01*
X460815D01*
Y127758D01*
X465340D01*
X465453Y127744D01*
D02*
G37*
G36*
X473462Y69658D02*
X472264D01*
Y77285D01*
X472250Y77271D01*
X472179Y77214D01*
X472094Y77130D01*
X471954Y77031D01*
X471798Y76904D01*
X471601Y76763D01*
X471376Y76608D01*
X471122Y76453D01*
X471108D01*
X471094Y76439D01*
X471009Y76383D01*
X470868Y76312D01*
X470699Y76228D01*
X470502Y76129D01*
X470290Y76030D01*
X470079Y75932D01*
X469867Y75847D01*
Y77003D01*
X469881D01*
X469909Y77031D01*
X469966Y77045D01*
X470036Y77088D01*
X470121Y77130D01*
X470220Y77186D01*
X470459Y77327D01*
X470741Y77482D01*
X471023Y77680D01*
X471319Y77905D01*
X471615Y78145D01*
X471629Y78159D01*
X471643Y78173D01*
X471686Y78215D01*
X471742Y78258D01*
X471869Y78399D01*
X472038Y78568D01*
X472207Y78765D01*
X472391Y78991D01*
X472546Y79216D01*
X472687Y79456D01*
X473462D01*
Y69658D01*
D02*
G37*
G36*
X463270Y79569D02*
X463397D01*
X463523Y79555D01*
X463693Y79526D01*
X463862Y79498D01*
X464228Y79428D01*
X464651Y79315D01*
X465060Y79146D01*
X465271Y79047D01*
X465483Y78934D01*
X465497Y78920D01*
X465525Y78906D01*
X465582Y78864D01*
X465666Y78822D01*
X465751Y78751D01*
X465864Y78666D01*
X466103Y78469D01*
X466357Y78215D01*
X466639Y77905D01*
X466907Y77539D01*
X467132Y77130D01*
Y77116D01*
X467160Y77073D01*
X467189Y77017D01*
X467217Y76933D01*
X467273Y76820D01*
X467316Y76693D01*
X467372Y76538D01*
X467428Y76369D01*
X467471Y76185D01*
X467527Y75988D01*
X467583Y75777D01*
X467626Y75551D01*
X467682Y75058D01*
X467710Y74536D01*
Y74522D01*
Y74480D01*
Y74423D01*
Y74339D01*
X467696Y74226D01*
Y74099D01*
X467682Y73958D01*
X467668Y73817D01*
X467626Y73479D01*
X467555Y73112D01*
X467471Y72732D01*
X467344Y72365D01*
Y72351D01*
X467330Y72323D01*
X467301Y72266D01*
X467273Y72210D01*
X467231Y72125D01*
X467189Y72027D01*
X467076Y71801D01*
X466921Y71533D01*
X466724Y71251D01*
X466498Y70970D01*
X466244Y70687D01*
X466258D01*
X466287Y70659D01*
X466329Y70631D01*
X466399Y70589D01*
X466470Y70532D01*
X466568Y70476D01*
X466780Y70349D01*
X467034Y70194D01*
X467316Y70039D01*
X467612Y69912D01*
X467894Y69785D01*
X467513Y68897D01*
X467499D01*
X467471Y68911D01*
X467414Y68939D01*
X467330Y68968D01*
X467231Y69010D01*
X467118Y69066D01*
X466991Y69123D01*
X466850Y69193D01*
X466540Y69362D01*
X466188Y69560D01*
X465807Y69813D01*
X465412Y70096D01*
X465398D01*
X465370Y70067D01*
X465300Y70039D01*
X465229Y69997D01*
X465117Y69955D01*
X465004Y69898D01*
X464863Y69856D01*
X464708Y69799D01*
X464538Y69743D01*
X464355Y69687D01*
X463946Y69588D01*
X463495Y69517D01*
X463256Y69503D01*
X463016Y69489D01*
X462889D01*
X462790Y69503D01*
X462678D01*
X462537Y69517D01*
X462382Y69546D01*
X462212Y69574D01*
X461846Y69644D01*
X461437Y69757D01*
X461014Y69912D01*
X460817Y70011D01*
X460605Y70124D01*
X460591Y70138D01*
X460563Y70152D01*
X460507Y70194D01*
X460436Y70236D01*
X460338Y70307D01*
X460239Y70392D01*
X459999Y70589D01*
X459731Y70843D01*
X459464Y71153D01*
X459196Y71505D01*
X458956Y71914D01*
Y71928D01*
X458928Y71970D01*
X458900Y72027D01*
X458871Y72111D01*
X458829Y72224D01*
X458773Y72351D01*
X458716Y72506D01*
X458674Y72675D01*
X458618Y72859D01*
X458561Y73056D01*
X458519Y73267D01*
X458463Y73507D01*
X458406Y74000D01*
X458378Y74522D01*
Y74536D01*
Y74592D01*
Y74663D01*
X458392Y74762D01*
Y74888D01*
X458406Y75044D01*
X458420Y75213D01*
X458449Y75396D01*
X458519Y75805D01*
X458618Y76242D01*
X458759Y76707D01*
X458956Y77158D01*
X458970Y77172D01*
X458984Y77214D01*
X459012Y77271D01*
X459069Y77355D01*
X459125Y77454D01*
X459196Y77567D01*
X459393Y77835D01*
X459619Y78117D01*
X459915Y78413D01*
X460239Y78709D01*
X460620Y78962D01*
X460634Y78977D01*
X460676Y78991D01*
X460732Y79019D01*
X460817Y79061D01*
X460916Y79103D01*
X461028Y79160D01*
X461169Y79216D01*
X461324Y79273D01*
X461508Y79329D01*
X461691Y79385D01*
X462100Y79484D01*
X462551Y79555D01*
X462790Y79583D01*
X463171D01*
X463270Y79569D01*
D02*
G37*
G36*
X232022Y30941D02*
X230823D01*
Y38568D01*
X230809Y38554D01*
X230739Y38497D01*
X230654Y38413D01*
X230513Y38314D01*
X230358Y38187D01*
X230161Y38046D01*
X229935Y37891D01*
X229681Y37736D01*
X229667D01*
X229653Y37722D01*
X229569Y37666D01*
X229428Y37595D01*
X229259Y37510D01*
X229061Y37412D01*
X228850Y37313D01*
X228638Y37215D01*
X228427Y37130D01*
Y38286D01*
X228441D01*
X228469Y38314D01*
X228526Y38328D01*
X228596Y38370D01*
X228681Y38413D01*
X228779Y38469D01*
X229019Y38610D01*
X229301Y38765D01*
X229583Y38963D01*
X229879Y39188D01*
X230175Y39428D01*
X230189Y39442D01*
X230203Y39456D01*
X230245Y39498D01*
X230302Y39541D01*
X230429Y39681D01*
X230598Y39851D01*
X230767Y40048D01*
X230950Y40273D01*
X231105Y40499D01*
X231246Y40739D01*
X232022D01*
Y30941D01*
D02*
G37*
G36*
X222816Y40682D02*
X222943D01*
X223239Y40668D01*
X223549Y40626D01*
X223888Y40584D01*
X224198Y40513D01*
X224353Y40471D01*
X224480Y40429D01*
X224494D01*
X224508Y40415D01*
X224592Y40372D01*
X224719Y40316D01*
X224874Y40217D01*
X225044Y40090D01*
X225227Y39921D01*
X225396Y39724D01*
X225565Y39498D01*
Y39484D01*
X225579Y39470D01*
X225636Y39385D01*
X225692Y39244D01*
X225777Y39061D01*
X225847Y38850D01*
X225918Y38596D01*
X225960Y38328D01*
X225974Y38032D01*
Y38018D01*
Y37990D01*
Y37933D01*
X225960Y37863D01*
Y37764D01*
X225946Y37666D01*
X225889Y37426D01*
X225805Y37144D01*
X225692Y36848D01*
X225523Y36552D01*
X225410Y36411D01*
X225297Y36270D01*
X225283Y36256D01*
X225269Y36242D01*
X225227Y36200D01*
X225170Y36157D01*
X225100Y36101D01*
X225015Y36044D01*
X224903Y35974D01*
X224790Y35889D01*
X224649Y35819D01*
X224494Y35748D01*
X224325Y35664D01*
X224141Y35593D01*
X223930Y35537D01*
X223718Y35466D01*
X223479Y35424D01*
X223225Y35382D01*
X223253Y35368D01*
X223310Y35340D01*
X223394Y35283D01*
X223507Y35227D01*
X223761Y35072D01*
X223888Y34973D01*
X224000Y34889D01*
X224029Y34860D01*
X224099Y34790D01*
X224212Y34677D01*
X224353Y34536D01*
X224508Y34339D01*
X224691Y34127D01*
X224874Y33874D01*
X225072Y33592D01*
X226749Y30941D01*
X225142D01*
X223860Y32971D01*
Y32985D01*
X223831Y33014D01*
X223803Y33056D01*
X223761Y33112D01*
X223662Y33267D01*
X223535Y33465D01*
X223380Y33676D01*
X223225Y33902D01*
X223070Y34113D01*
X222929Y34311D01*
X222915Y34325D01*
X222873Y34381D01*
X222802Y34466D01*
X222703Y34564D01*
X222492Y34776D01*
X222379Y34874D01*
X222267Y34959D01*
X222252Y34973D01*
X222224Y34987D01*
X222168Y35015D01*
X222083Y35058D01*
X221999Y35100D01*
X221900Y35142D01*
X221674Y35213D01*
X221660D01*
X221632Y35227D01*
X221576D01*
X221505Y35241D01*
X221407Y35255D01*
X221294D01*
X221139Y35269D01*
X219475D01*
Y30941D01*
X218178D01*
Y40696D01*
X222703D01*
X222816Y40682D01*
D02*
G37*
G36*
X473121Y22889D02*
X473304Y22861D01*
X473530Y22819D01*
X473784Y22748D01*
X474038Y22664D01*
X474291Y22551D01*
X474305D01*
X474319Y22537D01*
X474404Y22494D01*
X474531Y22410D01*
X474672Y22311D01*
X474841Y22170D01*
X475010Y22015D01*
X475179Y21832D01*
X475320Y21621D01*
X475334Y21592D01*
X475377Y21522D01*
X475433Y21395D01*
X475504Y21240D01*
X475574Y21057D01*
X475630Y20845D01*
X475673Y20605D01*
X475687Y20366D01*
Y20338D01*
Y20253D01*
X475673Y20140D01*
X475644Y19985D01*
X475602Y19802D01*
X475532Y19605D01*
X475447Y19407D01*
X475334Y19210D01*
X475320Y19182D01*
X475278Y19125D01*
X475193Y19027D01*
X475081Y18914D01*
X474940Y18787D01*
X474771Y18646D01*
X474573Y18519D01*
X474333Y18392D01*
X474348D01*
X474376Y18378D01*
X474418Y18364D01*
X474474Y18350D01*
X474630Y18294D01*
X474827Y18209D01*
X475052Y18096D01*
X475278Y17955D01*
X475489Y17772D01*
X475687Y17560D01*
X475701Y17532D01*
X475757Y17448D01*
X475842Y17307D01*
X475927Y17124D01*
X476011Y16898D01*
X476096Y16630D01*
X476152Y16320D01*
X476166Y15982D01*
Y15968D01*
Y15925D01*
Y15855D01*
X476152Y15770D01*
X476138Y15657D01*
X476110Y15531D01*
X476082Y15390D01*
X476053Y15235D01*
X475941Y14896D01*
X475856Y14713D01*
X475771Y14544D01*
X475659Y14361D01*
X475532Y14177D01*
X475391Y13994D01*
X475222Y13825D01*
X475207Y13811D01*
X475179Y13783D01*
X475123Y13740D01*
X475052Y13684D01*
X474968Y13613D01*
X474855Y13543D01*
X474728Y13458D01*
X474573Y13388D01*
X474418Y13303D01*
X474235Y13219D01*
X474052Y13148D01*
X473840Y13078D01*
X473615Y13021D01*
X473375Y12979D01*
X473135Y12951D01*
X472867Y12937D01*
X472741D01*
X472656Y12951D01*
X472543Y12965D01*
X472416Y12979D01*
X472275Y13007D01*
X472120Y13035D01*
X471782Y13120D01*
X471429Y13261D01*
X471246Y13346D01*
X471077Y13444D01*
X470908Y13571D01*
X470739Y13698D01*
X470725Y13712D01*
X470696Y13740D01*
X470654Y13783D01*
X470612Y13839D01*
X470541Y13909D01*
X470471Y14008D01*
X470386Y14107D01*
X470302Y14234D01*
X470217Y14375D01*
X470133Y14516D01*
X469977Y14854D01*
X469851Y15249D01*
X469808Y15460D01*
X469780Y15686D01*
X470978Y15841D01*
Y15827D01*
X470993Y15798D01*
X471007Y15742D01*
X471021Y15671D01*
X471035Y15587D01*
X471063Y15488D01*
X471133Y15277D01*
X471232Y15023D01*
X471359Y14783D01*
X471500Y14558D01*
X471669Y14361D01*
X471697Y14346D01*
X471754Y14290D01*
X471866Y14220D01*
X472007Y14149D01*
X472177Y14065D01*
X472388Y13994D01*
X472628Y13938D01*
X472882Y13923D01*
X472966D01*
X473022Y13938D01*
X473177Y13952D01*
X473375Y13994D01*
X473600Y14065D01*
X473840Y14163D01*
X474080Y14304D01*
X474305Y14502D01*
X474333Y14530D01*
X474404Y14614D01*
X474489Y14741D01*
X474601Y14910D01*
X474714Y15122D01*
X474799Y15361D01*
X474869Y15643D01*
X474897Y15954D01*
Y15968D01*
Y15996D01*
Y16038D01*
X474883Y16094D01*
X474869Y16250D01*
X474827Y16433D01*
X474771Y16658D01*
X474672Y16884D01*
X474531Y17109D01*
X474348Y17321D01*
X474319Y17349D01*
X474249Y17406D01*
X474136Y17490D01*
X473981Y17589D01*
X473784Y17687D01*
X473544Y17772D01*
X473276Y17828D01*
X472980Y17857D01*
X472853D01*
X472755Y17843D01*
X472628Y17828D01*
X472487Y17800D01*
X472318Y17772D01*
X472134Y17730D01*
X472275Y18787D01*
X472346D01*
X472402Y18773D01*
X472585D01*
X472741Y18801D01*
X472924Y18829D01*
X473135Y18872D01*
X473375Y18942D01*
X473600Y19041D01*
X473840Y19168D01*
X473854D01*
X473868Y19182D01*
X473939Y19238D01*
X474038Y19337D01*
X474150Y19464D01*
X474263Y19647D01*
X474362Y19858D01*
X474432Y20098D01*
X474460Y20239D01*
Y20394D01*
Y20408D01*
Y20422D01*
Y20507D01*
X474432Y20620D01*
X474404Y20775D01*
X474348Y20944D01*
X474277Y21127D01*
X474164Y21310D01*
X474009Y21479D01*
X473995Y21494D01*
X473925Y21550D01*
X473826Y21621D01*
X473699Y21705D01*
X473530Y21776D01*
X473333Y21846D01*
X473107Y21902D01*
X472853Y21916D01*
X472741D01*
X472614Y21888D01*
X472444Y21860D01*
X472261Y21804D01*
X472078Y21733D01*
X471881Y21621D01*
X471697Y21479D01*
X471683Y21465D01*
X471627Y21395D01*
X471542Y21296D01*
X471444Y21155D01*
X471345Y20972D01*
X471246Y20747D01*
X471162Y20479D01*
X471105Y20168D01*
X469907Y20380D01*
Y20394D01*
X469921Y20436D01*
X469935Y20493D01*
X469949Y20577D01*
X469977Y20676D01*
X470020Y20789D01*
X470104Y21057D01*
X470245Y21367D01*
X470415Y21677D01*
X470626Y21973D01*
X470894Y22241D01*
X470908Y22255D01*
X470936Y22269D01*
X470978Y22297D01*
X471035Y22339D01*
X471105Y22396D01*
X471204Y22452D01*
X471303Y22509D01*
X471429Y22579D01*
X471712Y22692D01*
X472036Y22805D01*
X472416Y22875D01*
X472614Y22903D01*
X472966D01*
X473121Y22889D01*
D02*
G37*
G36*
X465072Y22847D02*
X465199D01*
X465495Y22833D01*
X465805Y22791D01*
X466143Y22748D01*
X466453Y22678D01*
X466608Y22636D01*
X466735Y22593D01*
X466749D01*
X466763Y22579D01*
X466848Y22537D01*
X466975Y22480D01*
X467130Y22382D01*
X467299Y22255D01*
X467482Y22086D01*
X467651Y21888D01*
X467821Y21663D01*
Y21649D01*
X467835Y21635D01*
X467891Y21550D01*
X467948Y21409D01*
X468032Y21226D01*
X468103Y21014D01*
X468173Y20761D01*
X468215Y20493D01*
X468229Y20197D01*
Y20183D01*
Y20154D01*
Y20098D01*
X468215Y20027D01*
Y19929D01*
X468201Y19830D01*
X468145Y19591D01*
X468060Y19309D01*
X467948Y19013D01*
X467778Y18716D01*
X467666Y18576D01*
X467553Y18435D01*
X467539Y18420D01*
X467525Y18406D01*
X467482Y18364D01*
X467426Y18322D01*
X467355Y18265D01*
X467271Y18209D01*
X467158Y18139D01*
X467045Y18054D01*
X466904Y17983D01*
X466749Y17913D01*
X466580Y17828D01*
X466397Y17758D01*
X466185Y17701D01*
X465974Y17631D01*
X465734Y17589D01*
X465481Y17546D01*
X465509Y17532D01*
X465565Y17504D01*
X465650Y17448D01*
X465762Y17391D01*
X466016Y17236D01*
X466143Y17138D01*
X466256Y17053D01*
X466284Y17025D01*
X466355Y16954D01*
X466467Y16842D01*
X466608Y16701D01*
X466763Y16503D01*
X466947Y16292D01*
X467130Y16038D01*
X467327Y15756D01*
X469005Y13106D01*
X467398D01*
X466115Y15136D01*
Y15150D01*
X466087Y15178D01*
X466059Y15220D01*
X466016Y15277D01*
X465918Y15432D01*
X465791Y15629D01*
X465636Y15841D01*
X465481Y16066D01*
X465326Y16278D01*
X465185Y16475D01*
X465170Y16489D01*
X465128Y16546D01*
X465058Y16630D01*
X464959Y16729D01*
X464748Y16940D01*
X464635Y17039D01*
X464522Y17124D01*
X464508Y17138D01*
X464480Y17152D01*
X464423Y17180D01*
X464339Y17222D01*
X464254Y17264D01*
X464156Y17307D01*
X463930Y17377D01*
X463916D01*
X463888Y17391D01*
X463831D01*
X463761Y17406D01*
X463662Y17420D01*
X463549D01*
X463394Y17434D01*
X461731D01*
Y13106D01*
X460434D01*
Y22861D01*
X464959D01*
X465072Y22847D01*
D02*
G37*
G36*
X406776Y346402D02*
X405620D01*
Y349616D01*
X397021D01*
Y350913D01*
X405620D01*
Y354127D01*
X406776D01*
Y346402D01*
D02*
G37*
G36*
Y341059D02*
X406762Y340848D01*
X406748Y340608D01*
X406734Y340354D01*
X406706Y340115D01*
X406678Y339903D01*
Y339875D01*
X406650Y339776D01*
X406621Y339650D01*
X406579Y339481D01*
X406509Y339297D01*
X406424Y339100D01*
X406325Y338888D01*
X406213Y338705D01*
X406199Y338677D01*
X406156Y338621D01*
X406072Y338536D01*
X405973Y338423D01*
X405846Y338296D01*
X405677Y338170D01*
X405494Y338028D01*
X405282Y337916D01*
X405254Y337902D01*
X405183Y337873D01*
X405057Y337817D01*
X404887Y337761D01*
X404690Y337718D01*
X404464Y337662D01*
X404211Y337634D01*
X403943Y337620D01*
X403929D01*
X403886D01*
X403830D01*
X403731Y337634D01*
X403633Y337648D01*
X403506Y337662D01*
X403365Y337690D01*
X403210Y337718D01*
X402886Y337817D01*
X402716Y337873D01*
X402533Y337958D01*
X402350Y338057D01*
X402181Y338155D01*
X402012Y338282D01*
X401842Y338423D01*
X401828Y338437D01*
X401800Y338465D01*
X401758Y338508D01*
X401716Y338578D01*
X401645Y338663D01*
X401575Y338776D01*
X401490Y338917D01*
X401420Y339072D01*
X401335Y339255D01*
X401250Y339466D01*
X401180Y339692D01*
X401124Y339960D01*
X401067Y340242D01*
X401025Y340552D01*
X400997Y340904D01*
X400983Y341271D01*
Y343766D01*
X397021D01*
Y345063D01*
X406776D01*
Y341059D01*
D02*
G37*
G36*
X404366Y335533D02*
X404394Y335505D01*
X404408Y335449D01*
X404450Y335378D01*
X404493Y335294D01*
X404549Y335195D01*
X404690Y334955D01*
X404845Y334673D01*
X405042Y334392D01*
X405268Y334095D01*
X405508Y333799D01*
X405522Y333785D01*
X405536Y333771D01*
X405578Y333729D01*
X405620Y333672D01*
X405761Y333546D01*
X405931Y333377D01*
X406128Y333207D01*
X406353Y333024D01*
X406579Y332869D01*
X406819Y332728D01*
Y331953D01*
X397021D01*
Y333151D01*
X404648D01*
X404634Y333165D01*
X404577Y333236D01*
X404493Y333320D01*
X404394Y333461D01*
X404267Y333616D01*
X404126Y333814D01*
X403971Y334039D01*
X403816Y334293D01*
Y334307D01*
X403802Y334321D01*
X403746Y334406D01*
X403675Y334547D01*
X403591Y334716D01*
X403492Y334913D01*
X403393Y335125D01*
X403294Y335336D01*
X403210Y335547D01*
X404366D01*
Y335533D01*
D02*
G37*
G36*
X245141Y194473D02*
X245268Y194459D01*
X245423Y194444D01*
X245578Y194430D01*
X245761Y194388D01*
X246142Y194303D01*
X246565Y194177D01*
X246776Y194092D01*
X246974Y193993D01*
X247171Y193867D01*
X247369Y193740D01*
X247383Y193725D01*
X247411Y193711D01*
X247467Y193669D01*
X247538Y193599D01*
X247608Y193528D01*
X247707Y193430D01*
X247806Y193317D01*
X247918Y193204D01*
X248031Y193063D01*
X248144Y192894D01*
X248271Y192725D01*
X248384Y192541D01*
X248482Y192330D01*
X248595Y192118D01*
X248680Y191893D01*
X248764Y191639D01*
X247495Y191343D01*
Y191357D01*
X247481Y191385D01*
X247453Y191442D01*
X247425Y191512D01*
X247397Y191597D01*
X247354Y191710D01*
X247242Y191935D01*
X247101Y192189D01*
X246931Y192443D01*
X246720Y192682D01*
X246495Y192894D01*
X246466Y192922D01*
X246382Y192978D01*
X246241Y193049D01*
X246057Y193148D01*
X245818Y193232D01*
X245550Y193317D01*
X245226Y193373D01*
X244873Y193387D01*
X244760D01*
X244690Y193373D01*
X244591D01*
X244479Y193359D01*
X244211Y193317D01*
X243915Y193260D01*
X243605Y193162D01*
X243280Y193021D01*
X242984Y192837D01*
X242970D01*
X242956Y192809D01*
X242857Y192739D01*
X242731Y192626D01*
X242575Y192457D01*
X242392Y192245D01*
X242223Y192006D01*
X242068Y191710D01*
X241927Y191385D01*
Y191371D01*
X241913Y191343D01*
X241899Y191301D01*
X241885Y191230D01*
X241856Y191146D01*
X241828Y191047D01*
X241786Y190807D01*
X241730Y190525D01*
X241673Y190215D01*
X241645Y189877D01*
X241631Y189510D01*
Y189496D01*
Y189454D01*
Y189384D01*
Y189299D01*
X241645Y189200D01*
Y189074D01*
X241659Y188932D01*
X241673Y188777D01*
X241716Y188439D01*
X241786Y188073D01*
X241871Y187706D01*
X241983Y187340D01*
Y187325D01*
X241998Y187297D01*
X242026Y187255D01*
X242054Y187185D01*
X242139Y187015D01*
X242265Y186818D01*
X242420Y186592D01*
X242618Y186353D01*
X242843Y186141D01*
X243111Y185944D01*
X243125D01*
X243153Y185930D01*
X243196Y185902D01*
X243252Y185874D01*
X243323Y185845D01*
X243407Y185803D01*
X243605Y185718D01*
X243858Y185634D01*
X244140Y185563D01*
X244450Y185507D01*
X244775Y185493D01*
X244873D01*
X244958Y185507D01*
X245057D01*
X245155Y185521D01*
X245409Y185577D01*
X245705Y185648D01*
X246001Y185761D01*
X246311Y185916D01*
X246466Y186000D01*
X246607Y186113D01*
X246621Y186127D01*
X246635Y186141D01*
X246678Y186184D01*
X246734Y186226D01*
X246791Y186296D01*
X246861Y186381D01*
X246946Y186465D01*
X247016Y186578D01*
X247101Y186705D01*
X247199Y186846D01*
X247284Y186987D01*
X247369Y187156D01*
X247439Y187340D01*
X247509Y187537D01*
X247580Y187748D01*
X247636Y187974D01*
X248933Y187650D01*
Y187636D01*
X248919Y187579D01*
X248891Y187495D01*
X248849Y187382D01*
X248806Y187255D01*
X248750Y187100D01*
X248680Y186931D01*
X248595Y186747D01*
X248398Y186353D01*
X248144Y185958D01*
X247989Y185761D01*
X247834Y185563D01*
X247665Y185394D01*
X247467Y185225D01*
X247453Y185211D01*
X247425Y185183D01*
X247354Y185154D01*
X247284Y185098D01*
X247171Y185028D01*
X247058Y184957D01*
X246903Y184887D01*
X246748Y184816D01*
X246565Y184732D01*
X246368Y184661D01*
X246156Y184591D01*
X245931Y184520D01*
X245691Y184464D01*
X245437Y184436D01*
X245169Y184407D01*
X244887Y184393D01*
X244732D01*
X244620Y184407D01*
X244493D01*
X244338Y184422D01*
X244168Y184450D01*
X243971Y184478D01*
X243562Y184548D01*
X243139Y184661D01*
X242717Y184816D01*
X242519Y184915D01*
X242322Y185028D01*
X242308Y185042D01*
X242279Y185056D01*
X242223Y185098D01*
X242167Y185154D01*
X242082Y185211D01*
X241983Y185296D01*
X241871Y185394D01*
X241758Y185507D01*
X241645Y185634D01*
X241518Y185761D01*
X241264Y186085D01*
X241025Y186465D01*
X240813Y186889D01*
Y186903D01*
X240785Y186945D01*
X240771Y187015D01*
X240729Y187100D01*
X240701Y187213D01*
X240658Y187354D01*
X240602Y187509D01*
X240560Y187678D01*
X240517Y187861D01*
X240461Y188073D01*
X240390Y188510D01*
X240334Y189003D01*
X240306Y189510D01*
Y189525D01*
Y189581D01*
Y189666D01*
X240320Y189764D01*
Y189905D01*
X240334Y190046D01*
X240348Y190229D01*
X240376Y190413D01*
X240447Y190821D01*
X240546Y191273D01*
X240686Y191724D01*
X240884Y192161D01*
X240898Y192175D01*
X240912Y192217D01*
X240940Y192274D01*
X240997Y192344D01*
X241053Y192443D01*
X241124Y192555D01*
X241307Y192809D01*
X241546Y193091D01*
X241828Y193373D01*
X242153Y193655D01*
X242533Y193895D01*
X242547Y193909D01*
X242590Y193923D01*
X242646Y193951D01*
X242717Y193993D01*
X242829Y194036D01*
X242942Y194078D01*
X243083Y194134D01*
X243238Y194191D01*
X243407Y194247D01*
X243591Y194303D01*
X243985Y194388D01*
X244436Y194459D01*
X244902Y194487D01*
X245042D01*
X245141Y194473D01*
D02*
G37*
G36*
X253501Y194346D02*
X253613Y194332D01*
X253754Y194318D01*
X253909Y194289D01*
X254065Y194261D01*
X254431Y194163D01*
X254798Y194021D01*
X254981Y193937D01*
X255164Y193838D01*
X255333Y193711D01*
X255488Y193570D01*
X255502Y193556D01*
X255531Y193542D01*
X255559Y193486D01*
X255615Y193430D01*
X255686Y193359D01*
X255756Y193260D01*
X255827Y193162D01*
X255911Y193035D01*
X256052Y192767D01*
X256193Y192429D01*
X256250Y192259D01*
X256278Y192062D01*
X256306Y191865D01*
X256320Y191653D01*
Y191625D01*
Y191555D01*
X256306Y191442D01*
X256292Y191287D01*
X256264Y191118D01*
X256207Y190920D01*
X256151Y190709D01*
X256066Y190497D01*
X256052Y190469D01*
X256024Y190399D01*
X255968Y190286D01*
X255883Y190131D01*
X255770Y189962D01*
X255629Y189750D01*
X255460Y189539D01*
X255263Y189299D01*
X255235Y189271D01*
X255164Y189186D01*
X255094Y189116D01*
X255023Y189045D01*
X254939Y188961D01*
X254826Y188848D01*
X254713Y188735D01*
X254572Y188608D01*
X254431Y188467D01*
X254262Y188312D01*
X254079Y188157D01*
X253881Y187974D01*
X253656Y187791D01*
X253430Y187593D01*
X253416Y187579D01*
X253388Y187551D01*
X253332Y187509D01*
X253261Y187452D01*
X253176Y187368D01*
X253078Y187283D01*
X252852Y187100D01*
X252613Y186889D01*
X252387Y186677D01*
X252190Y186494D01*
X252105Y186423D01*
X252035Y186353D01*
X252020Y186339D01*
X251978Y186296D01*
X251922Y186240D01*
X251851Y186155D01*
X251781Y186057D01*
X251696Y185958D01*
X251527Y185718D01*
X256334D01*
Y184562D01*
X249864D01*
Y184576D01*
Y184633D01*
Y184718D01*
X249878Y184830D01*
X249892Y184957D01*
X249920Y185098D01*
X249948Y185239D01*
X250005Y185394D01*
Y185408D01*
X250019Y185422D01*
X250047Y185507D01*
X250103Y185634D01*
X250188Y185803D01*
X250301Y186000D01*
X250442Y186226D01*
X250597Y186451D01*
X250794Y186691D01*
Y186705D01*
X250822Y186719D01*
X250893Y186804D01*
X251020Y186931D01*
X251203Y187114D01*
X251414Y187325D01*
X251682Y187579D01*
X252006Y187861D01*
X252359Y188157D01*
X252373Y188171D01*
X252429Y188214D01*
X252514Y188284D01*
X252613Y188369D01*
X252739Y188481D01*
X252894Y188608D01*
X253050Y188749D01*
X253233Y188904D01*
X253585Y189243D01*
X253938Y189581D01*
X254107Y189750D01*
X254262Y189919D01*
X254403Y190074D01*
X254516Y190229D01*
Y190243D01*
X254544Y190258D01*
X254572Y190300D01*
X254600Y190356D01*
X254699Y190511D01*
X254812Y190695D01*
X254910Y190920D01*
X255009Y191160D01*
X255065Y191428D01*
X255094Y191681D01*
Y191695D01*
Y191710D01*
X255079Y191794D01*
X255065Y191935D01*
X255023Y192090D01*
X254967Y192288D01*
X254868Y192485D01*
X254741Y192682D01*
X254572Y192880D01*
X254544Y192908D01*
X254473Y192964D01*
X254375Y193035D01*
X254220Y193133D01*
X254022Y193218D01*
X253797Y193303D01*
X253529Y193359D01*
X253233Y193373D01*
X253148D01*
X253092Y193359D01*
X252923Y193345D01*
X252725Y193303D01*
X252514Y193246D01*
X252274Y193148D01*
X252049Y193021D01*
X251837Y192852D01*
X251809Y192823D01*
X251753Y192753D01*
X251668Y192640D01*
X251583Y192471D01*
X251485Y192274D01*
X251400Y192020D01*
X251344Y191738D01*
X251316Y191414D01*
X250089Y191541D01*
Y191555D01*
X250103Y191597D01*
Y191667D01*
X250117Y191766D01*
X250146Y191879D01*
X250174Y192006D01*
X250216Y192161D01*
X250258Y192316D01*
X250371Y192654D01*
X250540Y192992D01*
X250639Y193162D01*
X250766Y193331D01*
X250893Y193486D01*
X251034Y193627D01*
X251048Y193641D01*
X251076Y193655D01*
X251118Y193697D01*
X251189Y193740D01*
X251273Y193796D01*
X251372Y193852D01*
X251485Y193923D01*
X251626Y193993D01*
X251781Y194064D01*
X251950Y194134D01*
X252133Y194191D01*
X252331Y194247D01*
X252542Y194289D01*
X252768Y194332D01*
X253007Y194346D01*
X253261Y194360D01*
X253402D01*
X253501Y194346D01*
D02*
G37*
G36*
X226265Y282366D02*
X218639D01*
X218653Y282352D01*
X218709Y282281D01*
X218794Y282197D01*
X218893Y282055D01*
X219020Y281901D01*
X219160Y281703D01*
X219316Y281478D01*
X219471Y281224D01*
Y281210D01*
X219485Y281196D01*
X219541Y281111D01*
X219612Y280970D01*
X219696Y280801D01*
X219795Y280604D01*
X219893Y280392D01*
X219992Y280181D01*
X220077Y279969D01*
X218921D01*
Y279983D01*
X218893Y280012D01*
X218879Y280068D01*
X218836Y280138D01*
X218794Y280223D01*
X218738Y280322D01*
X218597Y280561D01*
X218442Y280843D01*
X218244Y281125D01*
X218019Y281421D01*
X217779Y281717D01*
X217765Y281731D01*
X217751Y281745D01*
X217708Y281788D01*
X217666Y281844D01*
X217525Y281971D01*
X217356Y282140D01*
X217159Y282309D01*
X216933Y282493D01*
X216708Y282648D01*
X216468Y282789D01*
Y283564D01*
X226265D01*
Y282366D01*
D02*
G37*
G36*
X217666Y274993D02*
X226265D01*
Y273696D01*
X217666D01*
Y270482D01*
X216510D01*
Y278207D01*
X217666D01*
Y274993D01*
D02*
G37*
G36*
X226265Y268706D02*
X223305Y267564D01*
Y263476D01*
X226265Y262418D01*
Y261051D01*
X216510Y264773D01*
Y266182D01*
X226265Y270172D01*
Y268706D01*
D02*
G37*
G36*
X223686Y260332D02*
X223855Y260304D01*
X224052Y260276D01*
X224264Y260219D01*
X224489Y260149D01*
X224715Y260050D01*
X224743Y260036D01*
X224813Y259994D01*
X224912Y259937D01*
X225053Y259853D01*
X225194Y259740D01*
X225349Y259627D01*
X225504Y259486D01*
X225631Y259331D01*
X225645Y259317D01*
X225687Y259261D01*
X225744Y259162D01*
X225800Y259035D01*
X225885Y258880D01*
X225969Y258697D01*
X226040Y258499D01*
X226110Y258260D01*
Y258232D01*
X226138Y258147D01*
X226153Y258006D01*
X226181Y257823D01*
X226209Y257597D01*
X226237Y257329D01*
X226251Y257033D01*
X226265Y256695D01*
Y252973D01*
X216510D01*
Y256808D01*
X216524Y256907D01*
Y257019D01*
X216553Y257273D01*
X216581Y257555D01*
X216637Y257851D01*
X216708Y258147D01*
X216806Y258415D01*
Y258429D01*
X216820Y258443D01*
X216863Y258528D01*
X216933Y258654D01*
X217032Y258796D01*
X217159Y258965D01*
X217314Y259148D01*
X217511Y259317D01*
X217723Y259472D01*
X217751Y259486D01*
X217835Y259529D01*
X217948Y259599D01*
X218117Y259669D01*
X218315Y259740D01*
X218526Y259811D01*
X218766Y259853D01*
X219005Y259867D01*
X219034D01*
X219104D01*
X219231Y259853D01*
X219386Y259825D01*
X219569Y259782D01*
X219767Y259712D01*
X219964Y259627D01*
X220175Y259514D01*
X220204Y259500D01*
X220260Y259458D01*
X220373Y259373D01*
X220486Y259261D01*
X220627Y259120D01*
X220782Y258951D01*
X220923Y258739D01*
X221064Y258499D01*
Y258514D01*
X221078Y258542D01*
X221092Y258584D01*
X221120Y258640D01*
X221176Y258810D01*
X221275Y259007D01*
X221402Y259218D01*
X221557Y259458D01*
X221740Y259669D01*
X221966Y259867D01*
X221994Y259881D01*
X222079Y259937D01*
X222205Y260022D01*
X222375Y260107D01*
X222600Y260191D01*
X222840Y260276D01*
X223122Y260332D01*
X223432Y260346D01*
X223446D01*
X223460D01*
X223545D01*
X223686Y260332D01*
D02*
G37*
G36*
X226265Y248039D02*
Y246700D01*
X216510Y242922D01*
Y244332D01*
X223601Y246869D01*
X223615D01*
X223643Y246884D01*
X223686Y246898D01*
X223742Y246926D01*
X223827Y246940D01*
X223911Y246968D01*
X224123Y247039D01*
X224362Y247123D01*
X224630Y247208D01*
X225194Y247377D01*
X225180D01*
X225152Y247391D01*
X225109Y247405D01*
X225053Y247419D01*
X224898Y247461D01*
X224687Y247532D01*
X224447Y247603D01*
X224179Y247687D01*
X223897Y247786D01*
X223601Y247899D01*
X216510Y250549D01*
Y251860D01*
X226265Y248039D01*
D02*
G37*
G36*
X228972Y235084D02*
X228112D01*
Y243021D01*
X228972D01*
Y235084D01*
D02*
G37*
G36*
X219555Y234690D02*
X219654Y234676D01*
X219781Y234661D01*
X219922Y234633D01*
X220077Y234605D01*
X220401Y234506D01*
X220570Y234450D01*
X220753Y234365D01*
X220937Y234267D01*
X221106Y234168D01*
X221275Y234041D01*
X221444Y233900D01*
X221458Y233886D01*
X221486Y233858D01*
X221529Y233816D01*
X221571Y233745D01*
X221642Y233661D01*
X221712Y233548D01*
X221797Y233407D01*
X221867Y233252D01*
X221952Y233068D01*
X222036Y232857D01*
X222107Y232631D01*
X222163Y232364D01*
X222220Y232082D01*
X222262Y231772D01*
X222290Y231419D01*
X222304Y231053D01*
Y228557D01*
X226265D01*
Y227260D01*
X216510D01*
Y231264D01*
X216524Y231476D01*
X216539Y231715D01*
X216553Y231969D01*
X216581Y232208D01*
X216609Y232420D01*
Y232448D01*
X216637Y232547D01*
X216665Y232674D01*
X216708Y232843D01*
X216778Y233026D01*
X216863Y233223D01*
X216961Y233435D01*
X217074Y233618D01*
X217088Y233646D01*
X217131Y233703D01*
X217215Y233787D01*
X217314Y233900D01*
X217441Y234027D01*
X217610Y234154D01*
X217793Y234295D01*
X218004Y234408D01*
X218033Y234422D01*
X218103Y234450D01*
X218230Y234506D01*
X218399Y234563D01*
X218597Y234605D01*
X218822Y234661D01*
X219076Y234690D01*
X219344Y234704D01*
X219358D01*
X219400D01*
X219457D01*
X219555Y234690D01*
D02*
G37*
G36*
X217666Y222707D02*
X226265D01*
Y221410D01*
X217666D01*
Y218196D01*
X216510D01*
Y225921D01*
X217666D01*
Y222707D01*
D02*
G37*
G36*
X30052Y17833D02*
X30179Y17818D01*
X30334Y17804D01*
X30489Y17790D01*
X30672Y17748D01*
X31053Y17664D01*
X31476Y17537D01*
X31687Y17452D01*
X31884Y17353D01*
X32082Y17227D01*
X32279Y17100D01*
X32293Y17085D01*
X32321Y17071D01*
X32378Y17029D01*
X32448Y16959D01*
X32519Y16888D01*
X32617Y16789D01*
X32716Y16677D01*
X32829Y16564D01*
X32942Y16423D01*
X33054Y16254D01*
X33181Y16085D01*
X33294Y15901D01*
X33393Y15690D01*
X33505Y15478D01*
X33590Y15253D01*
X33675Y14999D01*
X32406Y14703D01*
Y14717D01*
X32392Y14745D01*
X32364Y14802D01*
X32336Y14872D01*
X32307Y14957D01*
X32265Y15070D01*
X32152Y15295D01*
X32011Y15549D01*
X31842Y15803D01*
X31631Y16042D01*
X31405Y16254D01*
X31377Y16282D01*
X31292Y16338D01*
X31151Y16409D01*
X30968Y16508D01*
X30728Y16592D01*
X30461Y16677D01*
X30136Y16733D01*
X29784Y16747D01*
X29671D01*
X29601Y16733D01*
X29502D01*
X29389Y16719D01*
X29121Y16677D01*
X28825Y16620D01*
X28515Y16522D01*
X28191Y16381D01*
X27895Y16197D01*
X27881D01*
X27867Y16169D01*
X27768Y16099D01*
X27641Y15986D01*
X27486Y15817D01*
X27303Y15605D01*
X27134Y15366D01*
X26979Y15070D01*
X26838Y14745D01*
Y14731D01*
X26824Y14703D01*
X26809Y14661D01*
X26795Y14590D01*
X26767Y14506D01*
X26739Y14407D01*
X26697Y14167D01*
X26640Y13886D01*
X26584Y13575D01*
X26556Y13237D01*
X26542Y12871D01*
Y12856D01*
Y12814D01*
Y12744D01*
Y12659D01*
X26556Y12560D01*
Y12434D01*
X26570Y12292D01*
X26584Y12137D01*
X26626Y11799D01*
X26697Y11433D01*
X26781Y11066D01*
X26894Y10699D01*
Y10685D01*
X26908Y10657D01*
X26936Y10615D01*
X26964Y10545D01*
X27049Y10375D01*
X27176Y10178D01*
X27331Y9952D01*
X27528Y9713D01*
X27754Y9501D01*
X28022Y9304D01*
X28036D01*
X28064Y9290D01*
X28106Y9262D01*
X28163Y9233D01*
X28233Y9205D01*
X28318Y9163D01*
X28515Y9078D01*
X28769Y8994D01*
X29051Y8923D01*
X29361Y8867D01*
X29685Y8853D01*
X29784D01*
X29869Y8867D01*
X29967D01*
X30066Y8881D01*
X30320Y8937D01*
X30616Y9008D01*
X30912Y9121D01*
X31222Y9276D01*
X31377Y9360D01*
X31518Y9473D01*
X31532Y9487D01*
X31546Y9501D01*
X31588Y9544D01*
X31645Y9586D01*
X31701Y9656D01*
X31772Y9741D01*
X31856Y9826D01*
X31927Y9938D01*
X32011Y10065D01*
X32110Y10206D01*
X32194Y10347D01*
X32279Y10516D01*
X32350Y10699D01*
X32420Y10897D01*
X32491Y11108D01*
X32547Y11334D01*
X33844Y11010D01*
Y10996D01*
X33830Y10939D01*
X33802Y10855D01*
X33759Y10742D01*
X33717Y10615D01*
X33661Y10460D01*
X33590Y10291D01*
X33505Y10108D01*
X33308Y9713D01*
X33054Y9318D01*
X32899Y9121D01*
X32744Y8923D01*
X32575Y8754D01*
X32378Y8585D01*
X32364Y8571D01*
X32336Y8543D01*
X32265Y8515D01*
X32194Y8458D01*
X32082Y8388D01*
X31969Y8317D01*
X31814Y8247D01*
X31659Y8176D01*
X31476Y8092D01*
X31278Y8021D01*
X31067Y7951D01*
X30841Y7880D01*
X30602Y7824D01*
X30348Y7796D01*
X30080Y7767D01*
X29798Y7753D01*
X29643D01*
X29530Y7767D01*
X29403D01*
X29248Y7782D01*
X29079Y7810D01*
X28882Y7838D01*
X28473Y7908D01*
X28050Y8021D01*
X27627Y8176D01*
X27430Y8275D01*
X27232Y8388D01*
X27218Y8402D01*
X27190Y8416D01*
X27134Y8458D01*
X27077Y8515D01*
X26993Y8571D01*
X26894Y8655D01*
X26781Y8754D01*
X26669Y8867D01*
X26556Y8994D01*
X26429Y9121D01*
X26175Y9445D01*
X25935Y9826D01*
X25724Y10248D01*
Y10263D01*
X25696Y10305D01*
X25682Y10375D01*
X25639Y10460D01*
X25611Y10573D01*
X25569Y10714D01*
X25512Y10869D01*
X25470Y11038D01*
X25428Y11221D01*
X25372Y11433D01*
X25301Y11870D01*
X25245Y12363D01*
X25217Y12871D01*
Y12885D01*
Y12941D01*
Y13026D01*
X25231Y13124D01*
Y13265D01*
X25245Y13406D01*
X25259Y13589D01*
X25287Y13773D01*
X25357Y14181D01*
X25456Y14633D01*
X25597Y15084D01*
X25794Y15521D01*
X25809Y15535D01*
X25823Y15577D01*
X25851Y15633D01*
X25907Y15704D01*
X25964Y15803D01*
X26034Y15915D01*
X26217Y16169D01*
X26457Y16451D01*
X26739Y16733D01*
X27063Y17015D01*
X27444Y17255D01*
X27458Y17269D01*
X27500Y17283D01*
X27557Y17311D01*
X27627Y17353D01*
X27740Y17396D01*
X27853Y17438D01*
X27994Y17494D01*
X28149Y17551D01*
X28318Y17607D01*
X28501Y17664D01*
X28896Y17748D01*
X29347Y17818D01*
X29812Y17847D01*
X29953D01*
X30052Y17833D01*
D02*
G37*
G36*
X38298Y17706D02*
X38482Y17678D01*
X38707Y17635D01*
X38961Y17565D01*
X39215Y17480D01*
X39469Y17367D01*
X39483D01*
X39497Y17353D01*
X39581Y17311D01*
X39708Y17227D01*
X39849Y17128D01*
X40018Y16987D01*
X40188Y16832D01*
X40357Y16648D01*
X40498Y16437D01*
X40512Y16409D01*
X40554Y16338D01*
X40610Y16212D01*
X40681Y16056D01*
X40751Y15873D01*
X40808Y15662D01*
X40850Y15422D01*
X40864Y15182D01*
Y15154D01*
Y15070D01*
X40850Y14957D01*
X40822Y14802D01*
X40780Y14619D01*
X40709Y14421D01*
X40624Y14224D01*
X40512Y14026D01*
X40498Y13998D01*
X40455Y13942D01*
X40371Y13843D01*
X40258Y13730D01*
X40117Y13604D01*
X39948Y13463D01*
X39750Y13336D01*
X39511Y13209D01*
X39525D01*
X39553Y13195D01*
X39595Y13181D01*
X39652Y13167D01*
X39807Y13110D01*
X40004Y13026D01*
X40230Y12913D01*
X40455Y12772D01*
X40667Y12588D01*
X40864Y12377D01*
X40878Y12349D01*
X40935Y12264D01*
X41019Y12123D01*
X41104Y11940D01*
X41188Y11715D01*
X41273Y11447D01*
X41329Y11137D01*
X41343Y10798D01*
Y10784D01*
Y10742D01*
Y10671D01*
X41329Y10587D01*
X41315Y10474D01*
X41287Y10347D01*
X41259Y10206D01*
X41231Y10051D01*
X41118Y9713D01*
X41033Y9530D01*
X40949Y9360D01*
X40836Y9177D01*
X40709Y8994D01*
X40568Y8810D01*
X40399Y8641D01*
X40385Y8627D01*
X40357Y8599D01*
X40300Y8557D01*
X40230Y8500D01*
X40145Y8430D01*
X40033Y8359D01*
X39906Y8275D01*
X39750Y8204D01*
X39595Y8120D01*
X39412Y8035D01*
X39229Y7965D01*
X39018Y7894D01*
X38792Y7838D01*
X38552Y7796D01*
X38313Y7767D01*
X38045Y7753D01*
X37918D01*
X37833Y7767D01*
X37720Y7782D01*
X37594Y7796D01*
X37453Y7824D01*
X37298Y7852D01*
X36959Y7936D01*
X36607Y8077D01*
X36424Y8162D01*
X36254Y8261D01*
X36085Y8388D01*
X35916Y8515D01*
X35902Y8529D01*
X35874Y8557D01*
X35832Y8599D01*
X35789Y8655D01*
X35719Y8726D01*
X35648Y8825D01*
X35564Y8923D01*
X35479Y9050D01*
X35394Y9191D01*
X35310Y9332D01*
X35155Y9671D01*
X35028Y10065D01*
X34986Y10277D01*
X34957Y10502D01*
X36156Y10657D01*
Y10643D01*
X36170Y10615D01*
X36184Y10559D01*
X36198Y10488D01*
X36212Y10403D01*
X36240Y10305D01*
X36311Y10093D01*
X36409Y9840D01*
X36536Y9600D01*
X36677Y9374D01*
X36846Y9177D01*
X36875Y9163D01*
X36931Y9107D01*
X37044Y9036D01*
X37185Y8966D01*
X37354Y8881D01*
X37566Y8810D01*
X37805Y8754D01*
X38059Y8740D01*
X38143D01*
X38200Y8754D01*
X38355Y8768D01*
X38552Y8810D01*
X38778Y8881D01*
X39018Y8980D01*
X39257Y9121D01*
X39483Y9318D01*
X39511Y9346D01*
X39581Y9431D01*
X39666Y9558D01*
X39779Y9727D01*
X39892Y9938D01*
X39976Y10178D01*
X40047Y10460D01*
X40075Y10770D01*
Y10784D01*
Y10812D01*
Y10855D01*
X40061Y10911D01*
X40047Y11066D01*
X40004Y11249D01*
X39948Y11475D01*
X39849Y11700D01*
X39708Y11926D01*
X39525Y12137D01*
X39497Y12166D01*
X39426Y12222D01*
X39313Y12307D01*
X39158Y12405D01*
X38961Y12504D01*
X38721Y12588D01*
X38454Y12645D01*
X38158Y12673D01*
X38031D01*
X37932Y12659D01*
X37805Y12645D01*
X37664Y12617D01*
X37495Y12588D01*
X37312Y12546D01*
X37453Y13604D01*
X37523D01*
X37580Y13589D01*
X37763D01*
X37918Y13618D01*
X38101Y13646D01*
X38313Y13688D01*
X38552Y13759D01*
X38778Y13857D01*
X39018Y13984D01*
X39032D01*
X39046Y13998D01*
X39116Y14055D01*
X39215Y14153D01*
X39328Y14280D01*
X39440Y14463D01*
X39539Y14675D01*
X39609Y14914D01*
X39638Y15056D01*
Y15211D01*
Y15225D01*
Y15239D01*
Y15323D01*
X39609Y15436D01*
X39581Y15591D01*
X39525Y15760D01*
X39455Y15944D01*
X39342Y16127D01*
X39187Y16296D01*
X39172Y16310D01*
X39102Y16366D01*
X39003Y16437D01*
X38877Y16522D01*
X38707Y16592D01*
X38510Y16663D01*
X38284Y16719D01*
X38031Y16733D01*
X37918D01*
X37791Y16705D01*
X37622Y16677D01*
X37439Y16620D01*
X37255Y16550D01*
X37058Y16437D01*
X36875Y16296D01*
X36861Y16282D01*
X36804Y16212D01*
X36720Y16113D01*
X36621Y15972D01*
X36522Y15789D01*
X36424Y15563D01*
X36339Y15295D01*
X36283Y14985D01*
X35084Y15196D01*
Y15211D01*
X35099Y15253D01*
X35113Y15309D01*
X35127Y15394D01*
X35155Y15493D01*
X35197Y15605D01*
X35282Y15873D01*
X35423Y16183D01*
X35592Y16493D01*
X35803Y16789D01*
X36071Y17057D01*
X36085Y17071D01*
X36114Y17085D01*
X36156Y17114D01*
X36212Y17156D01*
X36283Y17212D01*
X36381Y17269D01*
X36480Y17325D01*
X36607Y17396D01*
X36889Y17508D01*
X37213Y17621D01*
X37594Y17692D01*
X37791Y17720D01*
X38143D01*
X38298Y17706D01*
D02*
G37*
%LPC*%
G36*
X298633Y185531D02*
X295560D01*
Y182303D01*
X298464D01*
X298633Y182317D01*
X298831Y182331D01*
X299056Y182345D01*
X299282Y182373D01*
X299507Y182416D01*
X299705Y182472D01*
X299733Y182486D01*
X299789Y182514D01*
X299874Y182556D01*
X299987Y182613D01*
X300114Y182698D01*
X300240Y182796D01*
X300367Y182923D01*
X300466Y183064D01*
X300480Y183078D01*
X300508Y183134D01*
X300550Y183219D01*
X300607Y183332D01*
X300649Y183459D01*
X300691Y183600D01*
X300720Y183769D01*
X300734Y183938D01*
Y183952D01*
Y183966D01*
X300720Y184051D01*
X300706Y184178D01*
X300677Y184347D01*
X300607Y184516D01*
X300522Y184713D01*
X300395Y184897D01*
X300226Y185080D01*
X300198Y185094D01*
X300128Y185150D01*
X300015Y185221D01*
X299832Y185305D01*
X299620Y185390D01*
X299338Y185460D01*
X299014Y185517D01*
X298633Y185531D01*
D02*
G37*
G36*
X473982Y125812D02*
X470909Y121442D01*
X473982D01*
Y125812D01*
D02*
G37*
G36*
X465185Y126672D02*
X462112D01*
Y123444D01*
X465016D01*
X465185Y123458D01*
X465382Y123472D01*
X465608Y123486D01*
X465834Y123514D01*
X466059Y123557D01*
X466256Y123613D01*
X466285Y123627D01*
X466341Y123655D01*
X466426Y123698D01*
X466538Y123754D01*
X466665Y123839D01*
X466792Y123937D01*
X466919Y124064D01*
X467018Y124205D01*
X467032Y124219D01*
X467060Y124276D01*
X467102Y124360D01*
X467159Y124473D01*
X467201Y124600D01*
X467243Y124741D01*
X467271Y124910D01*
X467286Y125079D01*
Y125093D01*
Y125107D01*
X467271Y125192D01*
X467257Y125319D01*
X467229Y125488D01*
X467159Y125657D01*
X467074Y125855D01*
X466947Y126038D01*
X466778Y126221D01*
X466750Y126235D01*
X466679Y126292D01*
X466567Y126362D01*
X466383Y126447D01*
X466172Y126531D01*
X465890Y126602D01*
X465566Y126658D01*
X465185Y126672D01*
D02*
G37*
G36*
X463044Y78469D02*
X462903D01*
X462805Y78455D01*
X462678Y78441D01*
X462537Y78413D01*
X462382Y78384D01*
X462212Y78342D01*
X462015Y78286D01*
X461832Y78229D01*
X461634Y78145D01*
X461423Y78046D01*
X461226Y77933D01*
X461028Y77792D01*
X460831Y77652D01*
X460648Y77468D01*
X460634Y77454D01*
X460605Y77426D01*
X460563Y77369D01*
X460507Y77285D01*
X460422Y77186D01*
X460352Y77059D01*
X460267Y76904D01*
X460182Y76735D01*
X460084Y76538D01*
X459999Y76312D01*
X459929Y76073D01*
X459858Y75805D01*
X459788Y75523D01*
X459745Y75213D01*
X459717Y74874D01*
X459703Y74522D01*
Y74494D01*
Y74437D01*
Y74339D01*
X459717Y74212D01*
X459731Y74057D01*
X459760Y73874D01*
X459788Y73662D01*
X459816Y73451D01*
X459929Y72971D01*
X459999Y72732D01*
X460098Y72492D01*
X460197Y72252D01*
X460323Y72027D01*
X460465Y71801D01*
X460634Y71604D01*
X460648Y71590D01*
X460676Y71562D01*
X460732Y71505D01*
X460803Y71449D01*
X460901Y71364D01*
X461014Y71280D01*
X461141Y71195D01*
X461296Y71096D01*
X461451Y70998D01*
X461634Y70913D01*
X461832Y70828D01*
X462043Y70744D01*
X462283Y70687D01*
X462523Y70631D01*
X462776Y70603D01*
X463044Y70589D01*
X463171D01*
X463298Y70603D01*
X463467Y70617D01*
X463679Y70645D01*
X463890Y70702D01*
X464130Y70758D01*
X464355Y70843D01*
X464327Y70857D01*
X464257Y70913D01*
X464130Y70984D01*
X463975Y71068D01*
X463777Y71153D01*
X463566Y71251D01*
X463326Y71336D01*
X463072Y71406D01*
X463397Y72337D01*
X463411D01*
X463453Y72323D01*
X463509Y72309D01*
X463580Y72281D01*
X463679Y72252D01*
X463791Y72210D01*
X464045Y72111D01*
X464341Y71970D01*
X464651Y71815D01*
X464947Y71632D01*
X465243Y71406D01*
X465257Y71421D01*
X465300Y71449D01*
X465356Y71519D01*
X465427Y71604D01*
X465511Y71717D01*
X465610Y71844D01*
X465709Y71999D01*
X465821Y72182D01*
X465920Y72393D01*
X466019Y72633D01*
X466117Y72887D01*
X466202Y73155D01*
X466287Y73465D01*
X466343Y73789D01*
X466371Y74141D01*
X466385Y74522D01*
Y74536D01*
Y74578D01*
Y74635D01*
Y74719D01*
X466371Y74832D01*
Y74945D01*
X466357Y75086D01*
X466329Y75227D01*
X466287Y75551D01*
X466216Y75903D01*
X466117Y76256D01*
X465976Y76594D01*
Y76608D01*
X465962Y76637D01*
X465934Y76679D01*
X465906Y76735D01*
X465807Y76904D01*
X465680Y77102D01*
X465511Y77327D01*
X465300Y77553D01*
X465060Y77778D01*
X464792Y77976D01*
X464778D01*
X464764Y78004D01*
X464722Y78018D01*
X464651Y78060D01*
X464581Y78088D01*
X464496Y78131D01*
X464285Y78229D01*
X464031Y78314D01*
X463735Y78399D01*
X463397Y78455D01*
X463044Y78469D01*
D02*
G37*
G36*
X222548Y39611D02*
X219475D01*
Y36383D01*
X222379D01*
X222548Y36397D01*
X222746Y36411D01*
X222971Y36425D01*
X223197Y36453D01*
X223423Y36495D01*
X223620Y36552D01*
X223648Y36566D01*
X223704Y36594D01*
X223789Y36637D01*
X223902Y36693D01*
X224029Y36778D01*
X224156Y36876D01*
X224282Y37003D01*
X224381Y37144D01*
X224395Y37158D01*
X224423Y37215D01*
X224466Y37299D01*
X224522Y37412D01*
X224564Y37539D01*
X224607Y37680D01*
X224635Y37849D01*
X224649Y38018D01*
Y38032D01*
Y38046D01*
X224635Y38131D01*
X224621Y38258D01*
X224592Y38427D01*
X224522Y38596D01*
X224437Y38793D01*
X224311Y38977D01*
X224141Y39160D01*
X224113Y39174D01*
X224043Y39230D01*
X223930Y39301D01*
X223747Y39385D01*
X223535Y39470D01*
X223253Y39541D01*
X222929Y39597D01*
X222548Y39611D01*
D02*
G37*
G36*
X464804Y21776D02*
X461731D01*
Y18547D01*
X464635D01*
X464804Y18561D01*
X465001Y18576D01*
X465227Y18590D01*
X465452Y18618D01*
X465678Y18660D01*
X465875Y18716D01*
X465904Y18731D01*
X465960Y18759D01*
X466045Y18801D01*
X466157Y18858D01*
X466284Y18942D01*
X466411Y19041D01*
X466538Y19168D01*
X466637Y19309D01*
X466651Y19323D01*
X466679Y19379D01*
X466721Y19464D01*
X466777Y19576D01*
X466820Y19703D01*
X466862Y19844D01*
X466890Y20013D01*
X466904Y20183D01*
Y20197D01*
Y20211D01*
X466890Y20295D01*
X466876Y20422D01*
X466848Y20591D01*
X466777Y20761D01*
X466693Y20958D01*
X466566Y21141D01*
X466397Y21324D01*
X466369Y21339D01*
X466298Y21395D01*
X466185Y21465D01*
X466002Y21550D01*
X465791Y21635D01*
X465509Y21705D01*
X465185Y21761D01*
X464804Y21776D01*
D02*
G37*
G36*
X405620Y343766D02*
X402138D01*
Y341144D01*
X402153Y341045D01*
Y340947D01*
X402167Y340834D01*
X402195Y340566D01*
X402251Y340270D01*
X402336Y339974D01*
X402449Y339706D01*
X402519Y339579D01*
X402604Y339481D01*
X402632Y339452D01*
X402688Y339396D01*
X402801Y339311D01*
X402942Y339213D01*
X403125Y339114D01*
X403351Y339029D01*
X403605Y338973D01*
X403901Y338945D01*
X403915D01*
X403929D01*
X403999D01*
X404126Y338959D01*
X404267Y338987D01*
X404422Y339015D01*
X404605Y339072D01*
X404775Y339156D01*
X404944Y339255D01*
X404958Y339269D01*
X405014Y339311D01*
X405085Y339382D01*
X405183Y339466D01*
X405282Y339593D01*
X405367Y339734D01*
X405451Y339889D01*
X405522Y340073D01*
Y340087D01*
X405536Y340143D01*
X405550Y340228D01*
X405578Y340340D01*
X405592Y340510D01*
X405606Y340721D01*
X405620Y340975D01*
Y343766D01*
D02*
G37*
G36*
X222248Y267155D02*
X219569Y266140D01*
X219555D01*
X219513Y266126D01*
X219442Y266098D01*
X219358Y266070D01*
X219259Y266027D01*
X219132Y265985D01*
X218991Y265943D01*
X218850Y265886D01*
X218526Y265774D01*
X218188Y265661D01*
X217850Y265548D01*
X217525Y265449D01*
X217539D01*
X217568Y265435D01*
X217624D01*
X217680Y265407D01*
X217779Y265393D01*
X217878Y265365D01*
X218117Y265308D01*
X218399Y265238D01*
X218709Y265139D01*
X219048Y265040D01*
X219400Y264914D01*
X222248Y263856D01*
Y267155D01*
D02*
G37*
G36*
X223432Y259021D02*
X223404D01*
X223347D01*
X223235Y259007D01*
X223108Y258979D01*
X222967Y258951D01*
X222812Y258894D01*
X222657Y258824D01*
X222502Y258725D01*
X222487Y258711D01*
X222431Y258669D01*
X222360Y258612D01*
X222276Y258528D01*
X222177Y258415D01*
X222079Y258274D01*
X221994Y258119D01*
X221924Y257936D01*
X221909Y257907D01*
X221895Y257851D01*
X221867Y257724D01*
X221839Y257569D01*
X221811Y257372D01*
X221782Y257132D01*
X221754Y256836D01*
Y254270D01*
X225109D01*
Y257047D01*
X225095Y257344D01*
X225081Y257470D01*
X225067Y257583D01*
Y257597D01*
X225053Y257654D01*
X225039Y257738D01*
X225011Y257837D01*
X224926Y258076D01*
X224813Y258316D01*
X224799Y258330D01*
X224771Y258373D01*
X224729Y258429D01*
X224672Y258499D01*
X224588Y258570D01*
X224503Y258669D01*
X224391Y258739D01*
X224264Y258824D01*
X224249Y258838D01*
X224207Y258852D01*
X224123Y258880D01*
X224024Y258922D01*
X223911Y258965D01*
X223770Y258993D01*
X223601Y259007D01*
X223432Y259021D01*
D02*
G37*
G36*
X219160Y258598D02*
X219132D01*
X219076D01*
X218991Y258584D01*
X218879Y258570D01*
X218738Y258542D01*
X218597Y258499D01*
X218456Y258443D01*
X218315Y258358D01*
X218301Y258344D01*
X218258Y258316D01*
X218188Y258260D01*
X218117Y258189D01*
X218033Y258091D01*
X217948Y257978D01*
X217864Y257837D01*
X217807Y257682D01*
Y257668D01*
X217779Y257597D01*
X217765Y257498D01*
X217737Y257344D01*
X217708Y257132D01*
X217694Y256892D01*
X217666Y256582D01*
Y254270D01*
X220598D01*
Y256667D01*
X220584Y256850D01*
X220570Y257047D01*
X220556Y257245D01*
X220528Y257442D01*
X220500Y257597D01*
X220486Y257625D01*
X220471Y257682D01*
X220429Y257766D01*
X220373Y257879D01*
X220317Y257992D01*
X220232Y258119D01*
X220119Y258246D01*
X220006Y258344D01*
X219992Y258358D01*
X219950Y258387D01*
X219865Y258429D01*
X219767Y258471D01*
X219654Y258514D01*
X219513Y258556D01*
X219344Y258584D01*
X219160Y258598D01*
D02*
G37*
G36*
X219386Y233379D02*
X219372D01*
X219358D01*
X219287D01*
X219160Y233365D01*
X219020Y233336D01*
X218864Y233308D01*
X218681Y233252D01*
X218512Y233167D01*
X218343Y233068D01*
X218329Y233054D01*
X218272Y233012D01*
X218202Y232942D01*
X218103Y232857D01*
X218004Y232730D01*
X217920Y232589D01*
X217835Y232434D01*
X217765Y232251D01*
Y232237D01*
X217751Y232180D01*
X217737Y232096D01*
X217708Y231983D01*
X217694Y231814D01*
X217680Y231602D01*
X217666Y231349D01*
Y228557D01*
X221148D01*
Y231179D01*
X221134Y231278D01*
Y231377D01*
X221120Y231490D01*
X221092Y231757D01*
X221035Y232054D01*
X220951Y232349D01*
X220838Y232617D01*
X220768Y232744D01*
X220683Y232843D01*
X220655Y232871D01*
X220598Y232927D01*
X220486Y233012D01*
X220345Y233111D01*
X220161Y233209D01*
X219936Y233294D01*
X219682Y233350D01*
X219386Y233379D01*
D02*
G37*
%LPD*%
D10*
X414397Y292240D02*
G03*
X414397Y292240I-1200J0D01*
G01*
D11*
X245940Y322320D02*
G03*
X245940Y322320I-1000J0D01*
G01*
D12*
X265120Y19360D02*
X385120D01*
X265120Y139360D02*
X385120D01*
X265120Y19360D02*
Y44360D01*
X385120Y19360D02*
Y44360D01*
Y114360D02*
Y139360D01*
X265120Y114360D02*
Y139360D01*
X419730Y204540D02*
X494290D01*
X419730Y318740D02*
Y327940D01*
Y261240D02*
Y289740D01*
Y204540D02*
Y232740D01*
Y327940D02*
X494290D01*
Y204540D02*
Y235240D01*
Y259240D02*
Y292740D01*
Y315740D02*
Y327940D01*
X254940Y384820D02*
X379940D01*
Y330520D02*
Y384820D01*
Y239820D02*
Y254120D01*
X363140Y239820D02*
X379940D01*
X254940D02*
X271740D01*
X254940D02*
Y254120D01*
Y330520D02*
Y384820D01*
D13*
X162760Y329860D02*
X207760D01*
X162760D02*
Y367360D01*
X145260Y384860D02*
X162760Y367360D01*
X90260Y384860D02*
X145260D01*
X72760Y367360D02*
X90260Y384860D01*
X72760Y329860D02*
Y367360D01*
X162760Y47360D02*
Y84860D01*
X147760Y32360D02*
X162760Y47360D01*
X87760Y32360D02*
X147760D01*
X72760Y47360D02*
X87760Y32360D01*
X72760Y47360D02*
Y84860D01*
X27760Y329860D02*
X72760D01*
X27760Y84860D02*
Y329860D01*
Y84860D02*
X72760D01*
X162760D02*
X187760D01*
X207760Y104860D01*
Y329860D01*
D14*
X117760Y92363D02*
Y112357D01*
X107763Y102360D02*
X127757D01*
X117762Y302363D02*
Y322357D01*
D15*
X302226Y89537D02*
Y74302D01*
X312383D01*
X327618Y86998D02*
X325078Y89537D01*
X320000D01*
X317461Y86998D01*
Y84459D01*
X320000Y81920D01*
X325078D01*
X327618Y79381D01*
Y76842D01*
X325078Y74302D01*
X320000D01*
X317461Y76842D01*
X332696Y74302D02*
X337774D01*
X335235D01*
Y89537D01*
X332696Y86998D01*
X304723Y309697D02*
Y297002D01*
X307262Y294463D01*
X312341D01*
X314880Y297002D01*
Y309697D01*
X319958Y294463D02*
X325037D01*
X322498D01*
Y309697D01*
X319958Y307158D01*
X115221Y248258D02*
X110142D01*
X112682D01*
Y235562D01*
X110142Y233022D01*
X107603D01*
X105064Y235562D01*
X130456Y233022D02*
X120299D01*
X130456Y243179D01*
Y245718D01*
X127917Y248258D01*
X122838D01*
X120299Y245718D01*
M02*
