G04*
G04 #@! TF.GenerationSoftware,Altium Limited,Altium Designer,25.4.2 (15)*
G04*
G04 Layer_Color=8388736*
%FSLAX44Y44*%
%MOMM*%
G71*
G04*
G04 #@! TF.SameCoordinates,803F4C27-1115-4C0D-8F39-351A014CAFA1*
G04*
G04*
G04 #@! TF.FilePolarity,Negative*
G04*
G01*
G75*
%ADD21R,1.5032X4.2032*%
%ADD22C,0.9906*%
G04:AMPARAMS|DCode=23|XSize=1.0032mm|YSize=1.2032mm|CornerRadius=0.2016mm|HoleSize=0mm|Usage=FLASHONLY|Rotation=270.000|XOffset=0mm|YOffset=0mm|HoleType=Round|Shape=RoundedRectangle|*
%AMROUNDEDRECTD23*
21,1,1.0032,0.8000,0,0,270.0*
21,1,0.6000,1.2032,0,0,270.0*
1,1,0.4032,-0.4000,-0.3000*
1,1,0.4032,-0.4000,0.3000*
1,1,0.4032,0.4000,0.3000*
1,1,0.4032,0.4000,-0.3000*
%
%ADD23ROUNDEDRECTD23*%
G04:AMPARAMS|DCode=24|XSize=1.0032mm|YSize=1.2032mm|CornerRadius=0.2016mm|HoleSize=0mm|Usage=FLASHONLY|Rotation=180.000|XOffset=0mm|YOffset=0mm|HoleType=Round|Shape=RoundedRectangle|*
%AMROUNDEDRECTD24*
21,1,1.0032,0.8000,0,0,180.0*
21,1,0.6000,1.2032,0,0,180.0*
1,1,0.4032,-0.3000,0.4000*
1,1,0.4032,0.3000,0.4000*
1,1,0.4032,0.3000,-0.4000*
1,1,0.4032,-0.3000,-0.4000*
%
%ADD24ROUNDEDRECTD24*%
G04:AMPARAMS|DCode=25|XSize=0.8032mm|YSize=1.2032mm|CornerRadius=0.1766mm|HoleSize=0mm|Usage=FLASHONLY|Rotation=90.000|XOffset=0mm|YOffset=0mm|HoleType=Round|Shape=RoundedRectangle|*
%AMROUNDEDRECTD25*
21,1,0.8032,0.8500,0,0,90.0*
21,1,0.4500,1.2032,0,0,90.0*
1,1,0.3532,0.4250,0.2250*
1,1,0.3532,0.4250,-0.2250*
1,1,0.3532,-0.4250,-0.2250*
1,1,0.3532,-0.4250,0.2250*
%
%ADD25ROUNDEDRECTD25*%
%ADD26C,1.0000*%
%ADD27R,4.4032X4.2032*%
%ADD28C,2.5781*%
%ADD29C,1.1938*%
%ADD30C,1.0032*%
%ADD31C,1.4732*%
G36*
X270940Y256320D02*
X253940D01*
X253680Y256330D01*
X253420Y256350D01*
X253160Y256380D01*
X252900Y256430D01*
X252650Y256490D01*
X252390Y256560D01*
X252150Y256650D01*
X251910Y256750D01*
X251670Y256860D01*
X251440Y256990D01*
X251220Y257130D01*
X251000Y257270D01*
X250790Y257430D01*
X250590Y257600D01*
X250400Y257780D01*
X250220Y257970D01*
X250050Y258170D01*
X249890Y258380D01*
X249750Y258600D01*
X249610Y258820D01*
X249480Y259050D01*
X249370Y259290D01*
X249270Y259530D01*
X249180Y259770D01*
X249110Y260030D01*
X249050Y260280D01*
X249000Y260540D01*
X248970Y260800D01*
X248950Y261060D01*
X248940Y261320D01*
Y263320D01*
X248950Y263580D01*
X248970Y263840D01*
X249000Y264100D01*
X249050Y264360D01*
X249110Y264610D01*
X249180Y264870D01*
X249270Y265110D01*
X249370Y265350D01*
X249480Y265590D01*
X249610Y265820D01*
X249750Y266040D01*
X249890Y266260D01*
X250050Y266470D01*
X250220Y266670D01*
X250400Y266860D01*
X250590Y267040D01*
X250790Y267210D01*
X251000Y267370D01*
X251220Y267510D01*
X251440Y267650D01*
X251670Y267780D01*
X251910Y267890D01*
X252150Y267990D01*
X252390Y268080D01*
X252650Y268150D01*
X252900Y268210D01*
X253160Y268260D01*
X253420Y268290D01*
X253680Y268310D01*
X253940Y268320D01*
X270940D01*
Y256320D01*
D02*
G37*
G36*
X285940Y238820D02*
X285930Y238560D01*
X285910Y238300D01*
X285880Y238040D01*
X285830Y237780D01*
X285770Y237530D01*
X285700Y237270D01*
X285610Y237030D01*
X285510Y236790D01*
X285400Y236550D01*
X285270Y236320D01*
X285130Y236100D01*
X284990Y235880D01*
X284830Y235670D01*
X284660Y235470D01*
X284480Y235280D01*
X284290Y235100D01*
X284090Y234930D01*
X283880Y234770D01*
X283660Y234630D01*
X283440Y234490D01*
X283210Y234360D01*
X282970Y234250D01*
X282730Y234150D01*
X282490Y234060D01*
X282230Y233990D01*
X281980Y233930D01*
X281720Y233880D01*
X281460Y233850D01*
X281200Y233830D01*
X280940Y233820D01*
X278940D01*
X278680Y233830D01*
X278420Y233850D01*
X278160Y233880D01*
X277900Y233930D01*
X277650Y233990D01*
X277390Y234060D01*
X277150Y234150D01*
X276910Y234250D01*
X276670Y234360D01*
X276440Y234490D01*
X276220Y234630D01*
X276000Y234770D01*
X275790Y234930D01*
X275590Y235100D01*
X275400Y235280D01*
X275220Y235470D01*
X275050Y235670D01*
X274890Y235880D01*
X274750Y236100D01*
X274610Y236320D01*
X274480Y236550D01*
X274370Y236790D01*
X274270Y237030D01*
X274180Y237270D01*
X274110Y237530D01*
X274050Y237780D01*
X274000Y238040D01*
X273970Y238300D01*
X273950Y238560D01*
X273940Y238820D01*
Y255820D01*
X285940D01*
Y238820D01*
D02*
G37*
G36*
X300940D02*
X300930Y238560D01*
X300910Y238300D01*
X300880Y238040D01*
X300830Y237780D01*
X300770Y237530D01*
X300700Y237270D01*
X300610Y237030D01*
X300510Y236790D01*
X300400Y236550D01*
X300270Y236320D01*
X300130Y236100D01*
X299990Y235880D01*
X299830Y235670D01*
X299660Y235470D01*
X299480Y235280D01*
X299290Y235100D01*
X299090Y234930D01*
X298880Y234770D01*
X298660Y234630D01*
X298440Y234490D01*
X298210Y234360D01*
X297970Y234250D01*
X297730Y234150D01*
X297490Y234060D01*
X297230Y233990D01*
X296980Y233930D01*
X296720Y233880D01*
X296460Y233850D01*
X296200Y233830D01*
X295940Y233820D01*
X293940D01*
X293680Y233830D01*
X293420Y233850D01*
X293160Y233880D01*
X292900Y233930D01*
X292650Y233990D01*
X292390Y234060D01*
X292150Y234150D01*
X291910Y234250D01*
X291670Y234360D01*
X291440Y234490D01*
X291220Y234630D01*
X291000Y234770D01*
X290790Y234930D01*
X290590Y235100D01*
X290400Y235280D01*
X290220Y235470D01*
X290050Y235670D01*
X289890Y235880D01*
X289750Y236100D01*
X289610Y236320D01*
X289480Y236550D01*
X289370Y236790D01*
X289270Y237030D01*
X289180Y237270D01*
X289110Y237530D01*
X289050Y237780D01*
X289000Y238040D01*
X288970Y238300D01*
X288950Y238560D01*
X288940Y238820D01*
Y255820D01*
X300940D01*
Y238820D01*
D02*
G37*
G36*
X315940D02*
X315930Y238560D01*
X315910Y238300D01*
X315880Y238040D01*
X315830Y237780D01*
X315770Y237530D01*
X315700Y237270D01*
X315610Y237030D01*
X315510Y236790D01*
X315400Y236550D01*
X315270Y236320D01*
X315130Y236100D01*
X314990Y235880D01*
X314830Y235670D01*
X314660Y235470D01*
X314480Y235280D01*
X314290Y235100D01*
X314090Y234930D01*
X313880Y234770D01*
X313660Y234630D01*
X313440Y234490D01*
X313210Y234360D01*
X312970Y234250D01*
X312730Y234150D01*
X312490Y234060D01*
X312230Y233990D01*
X311980Y233930D01*
X311720Y233880D01*
X311460Y233850D01*
X311200Y233830D01*
X310940Y233820D01*
X308940D01*
X308680Y233830D01*
X308420Y233850D01*
X308160Y233880D01*
X307900Y233930D01*
X307650Y233990D01*
X307390Y234060D01*
X307150Y234150D01*
X306910Y234250D01*
X306670Y234360D01*
X306440Y234490D01*
X306220Y234630D01*
X306000Y234770D01*
X305790Y234930D01*
X305590Y235100D01*
X305400Y235280D01*
X305220Y235470D01*
X305050Y235670D01*
X304890Y235880D01*
X304750Y236100D01*
X304610Y236320D01*
X304480Y236550D01*
X304370Y236790D01*
X304270Y237030D01*
X304180Y237270D01*
X304110Y237530D01*
X304050Y237780D01*
X304000Y238040D01*
X303970Y238300D01*
X303950Y238560D01*
X303940Y238820D01*
Y255820D01*
X315940D01*
Y238820D01*
D02*
G37*
G36*
X270940Y271320D02*
X253940D01*
X253680Y271330D01*
X253420Y271350D01*
X253160Y271380D01*
X252900Y271430D01*
X252650Y271490D01*
X252390Y271560D01*
X252150Y271650D01*
X251910Y271750D01*
X251670Y271860D01*
X251440Y271990D01*
X251220Y272130D01*
X251000Y272270D01*
X250790Y272430D01*
X250590Y272600D01*
X250400Y272780D01*
X250220Y272970D01*
X250050Y273170D01*
X249890Y273380D01*
X249750Y273600D01*
X249610Y273820D01*
X249480Y274050D01*
X249370Y274290D01*
X249270Y274530D01*
X249180Y274770D01*
X249110Y275030D01*
X249050Y275280D01*
X249000Y275540D01*
X248970Y275800D01*
X248950Y276060D01*
X248940Y276320D01*
Y278320D01*
X248950Y278580D01*
X248970Y278840D01*
X249000Y279100D01*
X249050Y279360D01*
X249110Y279610D01*
X249180Y279870D01*
X249270Y280110D01*
X249370Y280350D01*
X249480Y280590D01*
X249610Y280820D01*
X249750Y281040D01*
X249890Y281260D01*
X250050Y281470D01*
X250220Y281670D01*
X250400Y281860D01*
X250590Y282040D01*
X250790Y282210D01*
X251000Y282370D01*
X251220Y282510D01*
X251440Y282650D01*
X251670Y282780D01*
X251910Y282890D01*
X252150Y282990D01*
X252390Y283080D01*
X252650Y283150D01*
X252900Y283210D01*
X253160Y283260D01*
X253420Y283290D01*
X253680Y283310D01*
X253940Y283320D01*
X270940D01*
Y271320D01*
D02*
G37*
G36*
Y286320D02*
X253940D01*
X253680Y286330D01*
X253420Y286350D01*
X253160Y286380D01*
X252900Y286430D01*
X252650Y286490D01*
X252390Y286560D01*
X252150Y286650D01*
X251910Y286750D01*
X251670Y286860D01*
X251440Y286990D01*
X251220Y287130D01*
X251000Y287270D01*
X250790Y287430D01*
X250590Y287600D01*
X250400Y287780D01*
X250220Y287970D01*
X250050Y288170D01*
X249890Y288380D01*
X249750Y288600D01*
X249610Y288820D01*
X249480Y289050D01*
X249370Y289290D01*
X249270Y289530D01*
X249180Y289770D01*
X249110Y290030D01*
X249050Y290280D01*
X249000Y290540D01*
X248970Y290800D01*
X248950Y291060D01*
X248940Y291320D01*
Y293320D01*
X248950Y293580D01*
X248970Y293840D01*
X249000Y294100D01*
X249050Y294360D01*
X249110Y294610D01*
X249180Y294870D01*
X249270Y295110D01*
X249370Y295350D01*
X249480Y295590D01*
X249610Y295820D01*
X249750Y296040D01*
X249890Y296260D01*
X250050Y296470D01*
X250220Y296670D01*
X250400Y296860D01*
X250590Y297040D01*
X250790Y297210D01*
X251000Y297370D01*
X251220Y297510D01*
X251440Y297650D01*
X251670Y297780D01*
X251910Y297890D01*
X252150Y297990D01*
X252390Y298080D01*
X252650Y298150D01*
X252900Y298210D01*
X253160Y298260D01*
X253420Y298290D01*
X253680Y298310D01*
X253940Y298320D01*
X270940D01*
Y286320D01*
D02*
G37*
G36*
Y301320D02*
X253940D01*
X253680Y301330D01*
X253420Y301350D01*
X253160Y301380D01*
X252900Y301430D01*
X252650Y301490D01*
X252390Y301560D01*
X252150Y301650D01*
X251910Y301750D01*
X251670Y301860D01*
X251440Y301990D01*
X251220Y302130D01*
X251000Y302270D01*
X250790Y302430D01*
X250590Y302600D01*
X250400Y302780D01*
X250220Y302970D01*
X250050Y303170D01*
X249890Y303380D01*
X249750Y303600D01*
X249610Y303820D01*
X249480Y304050D01*
X249370Y304290D01*
X249270Y304530D01*
X249180Y304770D01*
X249110Y305030D01*
X249050Y305280D01*
X249000Y305540D01*
X248970Y305800D01*
X248950Y306060D01*
X248940Y306320D01*
Y308320D01*
X248950Y308580D01*
X248970Y308840D01*
X249000Y309100D01*
X249050Y309360D01*
X249110Y309610D01*
X249180Y309870D01*
X249270Y310110D01*
X249370Y310350D01*
X249480Y310590D01*
X249610Y310820D01*
X249750Y311040D01*
X249890Y311260D01*
X250050Y311470D01*
X250220Y311670D01*
X250400Y311860D01*
X250590Y312040D01*
X250790Y312210D01*
X251000Y312370D01*
X251220Y312510D01*
X251440Y312650D01*
X251670Y312780D01*
X251910Y312890D01*
X252150Y312990D01*
X252390Y313080D01*
X252650Y313150D01*
X252900Y313210D01*
X253160Y313260D01*
X253420Y313290D01*
X253680Y313310D01*
X253940Y313320D01*
X270940D01*
Y301320D01*
D02*
G37*
G36*
X261940Y316320D02*
X253940D01*
X253680Y316330D01*
X253420Y316350D01*
X253160Y316380D01*
X252900Y316430D01*
X252650Y316490D01*
X252390Y316560D01*
X252150Y316650D01*
X251910Y316750D01*
X251670Y316860D01*
X251440Y316990D01*
X251220Y317130D01*
X251000Y317270D01*
X250790Y317430D01*
X250590Y317600D01*
X250400Y317780D01*
X250220Y317970D01*
X250050Y318170D01*
X249890Y318380D01*
X249750Y318600D01*
X249610Y318820D01*
X249480Y319050D01*
X249370Y319290D01*
X249270Y319530D01*
X249180Y319770D01*
X249110Y320030D01*
X249050Y320280D01*
X249000Y320540D01*
X248970Y320800D01*
X248950Y321060D01*
X248940Y321320D01*
Y323320D01*
X248950Y323580D01*
X248970Y323840D01*
X249000Y324100D01*
X249050Y324360D01*
X249110Y324610D01*
X249180Y324870D01*
X249270Y325110D01*
X249370Y325350D01*
X249480Y325590D01*
X249610Y325820D01*
X249750Y326040D01*
X249890Y326260D01*
X250050Y326470D01*
X250220Y326670D01*
X250400Y326860D01*
X250590Y327040D01*
X250790Y327210D01*
X251000Y327370D01*
X251220Y327510D01*
X251440Y327650D01*
X251670Y327780D01*
X251910Y327890D01*
X252150Y327990D01*
X252390Y328080D01*
X252650Y328150D01*
X252900Y328210D01*
X253160Y328260D01*
X253420Y328290D01*
X253680Y328310D01*
X253940Y328320D01*
X261940D01*
Y316320D01*
D02*
G37*
G36*
X330940Y238820D02*
X330930Y238560D01*
X330910Y238300D01*
X330880Y238040D01*
X330830Y237780D01*
X330770Y237530D01*
X330700Y237270D01*
X330610Y237030D01*
X330510Y236790D01*
X330400Y236550D01*
X330270Y236320D01*
X330130Y236100D01*
X329990Y235880D01*
X329830Y235670D01*
X329660Y235470D01*
X329480Y235280D01*
X329290Y235100D01*
X329090Y234930D01*
X328880Y234770D01*
X328660Y234630D01*
X328440Y234490D01*
X328210Y234360D01*
X327970Y234250D01*
X327730Y234150D01*
X327490Y234060D01*
X327230Y233990D01*
X326980Y233930D01*
X326720Y233880D01*
X326460Y233850D01*
X326200Y233830D01*
X325940Y233820D01*
X323940D01*
X323680Y233830D01*
X323420Y233850D01*
X323160Y233880D01*
X322900Y233930D01*
X322650Y233990D01*
X322390Y234060D01*
X322150Y234150D01*
X321910Y234250D01*
X321670Y234360D01*
X321440Y234490D01*
X321220Y234630D01*
X321000Y234770D01*
X320790Y234930D01*
X320590Y235100D01*
X320400Y235280D01*
X320220Y235470D01*
X320050Y235670D01*
X319890Y235880D01*
X319750Y236100D01*
X319610Y236320D01*
X319480Y236550D01*
X319370Y236790D01*
X319270Y237030D01*
X319180Y237270D01*
X319110Y237530D01*
X319050Y237780D01*
X319000Y238040D01*
X318970Y238300D01*
X318950Y238560D01*
X318940Y238820D01*
Y255820D01*
X330940D01*
Y238820D01*
D02*
G37*
G36*
X345940D02*
X345930Y238560D01*
X345910Y238300D01*
X345880Y238040D01*
X345830Y237780D01*
X345770Y237530D01*
X345700Y237270D01*
X345610Y237030D01*
X345510Y236790D01*
X345400Y236550D01*
X345270Y236320D01*
X345130Y236100D01*
X344990Y235880D01*
X344830Y235670D01*
X344660Y235470D01*
X344480Y235280D01*
X344290Y235100D01*
X344090Y234930D01*
X343880Y234770D01*
X343660Y234630D01*
X343440Y234490D01*
X343210Y234360D01*
X342970Y234250D01*
X342730Y234150D01*
X342490Y234060D01*
X342230Y233990D01*
X341980Y233930D01*
X341720Y233880D01*
X341460Y233850D01*
X341200Y233830D01*
X340940Y233820D01*
X338940D01*
X338680Y233830D01*
X338420Y233850D01*
X338160Y233880D01*
X337900Y233930D01*
X337650Y233990D01*
X337390Y234060D01*
X337150Y234150D01*
X336910Y234250D01*
X336670Y234360D01*
X336440Y234490D01*
X336220Y234630D01*
X336000Y234770D01*
X335790Y234930D01*
X335590Y235100D01*
X335400Y235280D01*
X335220Y235470D01*
X335050Y235670D01*
X334890Y235880D01*
X334750Y236100D01*
X334610Y236320D01*
X334480Y236550D01*
X334370Y236790D01*
X334270Y237030D01*
X334180Y237270D01*
X334110Y237530D01*
X334050Y237780D01*
X334000Y238040D01*
X333970Y238300D01*
X333950Y238560D01*
X333940Y238820D01*
Y255820D01*
X345940D01*
Y238820D01*
D02*
G37*
G36*
X360940D02*
X360930Y238560D01*
X360910Y238300D01*
X360880Y238040D01*
X360830Y237780D01*
X360770Y237530D01*
X360700Y237270D01*
X360610Y237030D01*
X360510Y236790D01*
X360400Y236550D01*
X360270Y236320D01*
X360130Y236100D01*
X359990Y235880D01*
X359830Y235670D01*
X359660Y235470D01*
X359480Y235280D01*
X359290Y235100D01*
X359090Y234930D01*
X358880Y234770D01*
X358660Y234630D01*
X358440Y234490D01*
X358210Y234360D01*
X357970Y234250D01*
X357730Y234150D01*
X357490Y234060D01*
X357230Y233990D01*
X356980Y233930D01*
X356720Y233880D01*
X356460Y233850D01*
X356200Y233830D01*
X355940Y233820D01*
X353940D01*
X353680Y233830D01*
X353420Y233850D01*
X353160Y233880D01*
X352900Y233930D01*
X352650Y233990D01*
X352390Y234060D01*
X352150Y234150D01*
X351910Y234250D01*
X351670Y234360D01*
X351440Y234490D01*
X351220Y234630D01*
X351000Y234770D01*
X350790Y234930D01*
X350590Y235100D01*
X350400Y235280D01*
X350220Y235470D01*
X350050Y235670D01*
X349890Y235880D01*
X349750Y236100D01*
X349610Y236320D01*
X349480Y236550D01*
X349370Y236790D01*
X349270Y237030D01*
X349180Y237270D01*
X349110Y237530D01*
X349050Y237780D01*
X349000Y238040D01*
X348970Y238300D01*
X348950Y238560D01*
X348940Y238820D01*
Y255820D01*
X360940D01*
Y238820D01*
D02*
G37*
G36*
X381200Y268310D02*
X381460Y268290D01*
X381720Y268260D01*
X381980Y268210D01*
X382230Y268150D01*
X382490Y268080D01*
X382730Y267990D01*
X382970Y267890D01*
X383210Y267780D01*
X383440Y267650D01*
X383660Y267510D01*
X383880Y267370D01*
X384090Y267210D01*
X384290Y267040D01*
X384480Y266860D01*
X384660Y266670D01*
X384830Y266470D01*
X384990Y266260D01*
X385130Y266040D01*
X385270Y265820D01*
X385400Y265590D01*
X385510Y265350D01*
X385610Y265110D01*
X385700Y264870D01*
X385770Y264610D01*
X385830Y264360D01*
X385880Y264100D01*
X385910Y263840D01*
X385930Y263580D01*
X385940Y263320D01*
Y261320D01*
X385930Y261060D01*
X385910Y260800D01*
X385880Y260540D01*
X385830Y260280D01*
X385770Y260030D01*
X385700Y259770D01*
X385610Y259530D01*
X385510Y259290D01*
X385400Y259050D01*
X385270Y258820D01*
X385130Y258600D01*
X384990Y258380D01*
X384830Y258170D01*
X384660Y257970D01*
X384480Y257780D01*
X384290Y257600D01*
X384090Y257430D01*
X383880Y257270D01*
X383660Y257130D01*
X383440Y256990D01*
X383210Y256860D01*
X382970Y256750D01*
X382730Y256650D01*
X382490Y256560D01*
X382230Y256490D01*
X381980Y256430D01*
X381720Y256380D01*
X381460Y256350D01*
X381200Y256330D01*
X380940Y256320D01*
X363940D01*
Y268320D01*
X380940D01*
X381200Y268310D01*
D02*
G37*
G36*
Y283310D02*
X381460Y283290D01*
X381720Y283260D01*
X381980Y283210D01*
X382230Y283150D01*
X382490Y283080D01*
X382730Y282990D01*
X382970Y282890D01*
X383210Y282780D01*
X383440Y282650D01*
X383660Y282510D01*
X383880Y282370D01*
X384090Y282210D01*
X384290Y282040D01*
X384480Y281860D01*
X384660Y281670D01*
X384830Y281470D01*
X384990Y281260D01*
X385130Y281040D01*
X385270Y280820D01*
X385400Y280590D01*
X385510Y280350D01*
X385610Y280110D01*
X385700Y279870D01*
X385770Y279610D01*
X385830Y279360D01*
X385880Y279100D01*
X385910Y278840D01*
X385930Y278580D01*
X385940Y278320D01*
Y276320D01*
X385930Y276060D01*
X385910Y275800D01*
X385880Y275540D01*
X385830Y275280D01*
X385770Y275030D01*
X385700Y274770D01*
X385610Y274530D01*
X385510Y274290D01*
X385400Y274050D01*
X385270Y273820D01*
X385130Y273600D01*
X384990Y273380D01*
X384830Y273170D01*
X384660Y272970D01*
X384480Y272780D01*
X384290Y272600D01*
X384090Y272430D01*
X383880Y272270D01*
X383660Y272130D01*
X383440Y271990D01*
X383210Y271860D01*
X382970Y271750D01*
X382730Y271650D01*
X382490Y271560D01*
X382230Y271490D01*
X381980Y271430D01*
X381720Y271380D01*
X381460Y271350D01*
X381200Y271330D01*
X380940Y271320D01*
X363940D01*
Y283320D01*
X380940D01*
X381200Y283310D01*
D02*
G37*
G36*
Y298310D02*
X381460Y298290D01*
X381720Y298260D01*
X381980Y298210D01*
X382230Y298150D01*
X382490Y298080D01*
X382730Y297990D01*
X382970Y297890D01*
X383210Y297780D01*
X383440Y297650D01*
X383660Y297510D01*
X383880Y297370D01*
X384090Y297210D01*
X384290Y297040D01*
X384480Y296860D01*
X384660Y296670D01*
X384830Y296470D01*
X384990Y296260D01*
X385130Y296040D01*
X385270Y295820D01*
X385400Y295590D01*
X385510Y295350D01*
X385610Y295110D01*
X385700Y294870D01*
X385770Y294610D01*
X385830Y294360D01*
X385880Y294100D01*
X385910Y293840D01*
X385930Y293580D01*
X385940Y293320D01*
Y291320D01*
X385930Y291060D01*
X385910Y290800D01*
X385880Y290540D01*
X385830Y290280D01*
X385770Y290030D01*
X385700Y289770D01*
X385610Y289530D01*
X385510Y289290D01*
X385400Y289050D01*
X385270Y288820D01*
X385130Y288600D01*
X384990Y288380D01*
X384830Y288170D01*
X384660Y287970D01*
X384480Y287780D01*
X384290Y287600D01*
X384090Y287430D01*
X383880Y287270D01*
X383660Y287130D01*
X383440Y286990D01*
X383210Y286860D01*
X382970Y286750D01*
X382730Y286650D01*
X382490Y286560D01*
X382230Y286490D01*
X381980Y286430D01*
X381720Y286380D01*
X381460Y286350D01*
X381200Y286330D01*
X380940Y286320D01*
X363940D01*
Y298320D01*
X380940D01*
X381200Y298310D01*
D02*
G37*
G36*
Y313310D02*
X381460Y313290D01*
X381720Y313260D01*
X381980Y313210D01*
X382230Y313150D01*
X382490Y313080D01*
X382730Y312990D01*
X382970Y312890D01*
X383210Y312780D01*
X383440Y312650D01*
X383660Y312510D01*
X383880Y312370D01*
X384090Y312210D01*
X384290Y312040D01*
X384480Y311860D01*
X384660Y311670D01*
X384830Y311470D01*
X384990Y311260D01*
X385130Y311040D01*
X385270Y310820D01*
X385400Y310590D01*
X385510Y310350D01*
X385610Y310110D01*
X385700Y309870D01*
X385770Y309610D01*
X385830Y309360D01*
X385880Y309100D01*
X385910Y308840D01*
X385930Y308580D01*
X385940Y308320D01*
Y306320D01*
X385930Y306060D01*
X385910Y305800D01*
X385880Y305540D01*
X385830Y305280D01*
X385770Y305030D01*
X385700Y304770D01*
X385610Y304530D01*
X385510Y304290D01*
X385400Y304050D01*
X385270Y303820D01*
X385130Y303600D01*
X384990Y303380D01*
X384830Y303170D01*
X384660Y302970D01*
X384480Y302780D01*
X384290Y302600D01*
X384090Y302430D01*
X383880Y302270D01*
X383660Y302130D01*
X383440Y301990D01*
X383210Y301860D01*
X382970Y301750D01*
X382730Y301650D01*
X382490Y301560D01*
X382230Y301490D01*
X381980Y301430D01*
X381720Y301380D01*
X381460Y301350D01*
X381200Y301330D01*
X380940Y301320D01*
X363940D01*
Y313320D01*
X380940D01*
X381200Y313310D01*
D02*
G37*
G36*
Y328310D02*
X381460Y328290D01*
X381720Y328260D01*
X381980Y328210D01*
X382230Y328150D01*
X382490Y328080D01*
X382730Y327990D01*
X382970Y327890D01*
X383210Y327780D01*
X383440Y327650D01*
X383660Y327510D01*
X383880Y327370D01*
X384090Y327210D01*
X384290Y327040D01*
X384480Y326860D01*
X384660Y326670D01*
X384830Y326470D01*
X384990Y326260D01*
X385130Y326040D01*
X385270Y325820D01*
X385400Y325590D01*
X385510Y325350D01*
X385610Y325110D01*
X385700Y324870D01*
X385770Y324610D01*
X385830Y324360D01*
X385880Y324100D01*
X385910Y323840D01*
X385930Y323580D01*
X385940Y323320D01*
Y321320D01*
X385930Y321060D01*
X385910Y320800D01*
X385880Y320540D01*
X385830Y320280D01*
X385770Y320030D01*
X385700Y319770D01*
X385610Y319530D01*
X385510Y319290D01*
X385400Y319050D01*
X385270Y318820D01*
X385130Y318600D01*
X384990Y318380D01*
X384830Y318170D01*
X384660Y317970D01*
X384480Y317780D01*
X384290Y317600D01*
X384090Y317430D01*
X383880Y317270D01*
X383660Y317130D01*
X383440Y316990D01*
X383210Y316860D01*
X382970Y316750D01*
X382730Y316650D01*
X382490Y316560D01*
X382230Y316490D01*
X381980Y316430D01*
X381720Y316380D01*
X381460Y316350D01*
X381200Y316330D01*
X380940Y316320D01*
X363940D01*
Y328320D01*
X380940D01*
X381200Y328310D01*
D02*
G37*
D21*
X265120Y79360D02*
D03*
X385120D02*
D03*
D22*
X463360Y291640D02*
D03*
Y278940D02*
D03*
Y266240D02*
D03*
Y253540D02*
D03*
Y240840D02*
D03*
X450660D02*
D03*
Y253540D02*
D03*
Y266240D02*
D03*
Y278940D02*
D03*
Y291640D02*
D03*
D23*
X320000Y179380D02*
D03*
Y194380D02*
D03*
X360960D02*
D03*
Y179380D02*
D03*
X268800Y194380D02*
D03*
Y179380D02*
D03*
D24*
X430260Y125440D02*
D03*
X445260D02*
D03*
X235340Y15360D02*
D03*
X220340D02*
D03*
X427700Y17920D02*
D03*
X442700D02*
D03*
X133300Y10240D02*
D03*
X148300D02*
D03*
D25*
X425200Y71680D02*
D03*
X445200Y81180D02*
D03*
Y62180D02*
D03*
D26*
X401920Y322560D02*
D03*
X225280Y291840D02*
D03*
D27*
X117760Y62360D02*
D03*
Y352360D02*
D03*
D28*
X431610Y247190D02*
D03*
Y304340D02*
D03*
X482410Y247190D02*
D03*
Y304340D02*
D03*
D29*
X446860Y228140D02*
D03*
X467160D02*
D03*
X457010Y304340D02*
D03*
D30*
X412160Y181760D02*
D03*
X286720Y266240D02*
D03*
X235520Y225280D02*
D03*
X394240Y271360D02*
D03*
X340480Y217600D02*
D03*
X384000D02*
D03*
X312320Y268800D02*
D03*
D31*
X320000Y220160D02*
D03*
X268800Y222720D02*
D03*
X358400D02*
D03*
M02*
