G04*
G04 #@! TF.GenerationSoftware,Altium Limited,Altium Designer,25.4.2 (15)*
G04*
G04 Layer_Color=16711935*
%FSLAX44Y44*%
%MOMM*%
G71*
G04*
G04 #@! TF.SameCoordinates,803F4C27-1115-4C0D-8F39-351A014CAFA1*
G04*
G04*
G04 #@! TF.FilePolarity,Positive*
G04*
G01*
G75*
%ADD15C,0.2540*%
%ADD41R,11.7760X3.3280*%
%ADD42R,11.7760X3.3280*%
%ADD43R,10.2400X4.3520*%
%ADD44R,32.0000X32.0000*%
G36*
X379940Y341320D02*
X254940D01*
Y384820D01*
X379940D01*
Y341320D01*
D02*
G37*
G36*
X459423Y291577D02*
X459430Y291430D01*
X459440Y291230D01*
X459470Y291020D01*
X459510Y290820D01*
X459560Y290620D01*
X459620Y290420D01*
X459680Y290230D01*
X459760Y290040D01*
X459850Y289850D01*
X459950Y289670D01*
X460060Y289500D01*
X460170Y289330D01*
X460300Y289160D01*
X460430Y289010D01*
X460580Y288860D01*
X460730Y288710D01*
X460880Y288580D01*
X461050Y288450D01*
X461220Y288340D01*
X461390Y288230D01*
X461570Y288130D01*
X461760Y288040D01*
X461950Y287960D01*
X462140Y287900D01*
X462340Y287840D01*
X462540Y287790D01*
X462740Y287750D01*
X462950Y287720D01*
X463150Y287710D01*
X463360Y287700D01*
Y282880D01*
X463150Y282870D01*
X462950Y282860D01*
X462740Y282830D01*
X462540Y282790D01*
X462340Y282740D01*
X462140Y282680D01*
X461950Y282620D01*
X461760Y282540D01*
X461570Y282450D01*
X461390Y282350D01*
X461220Y282240D01*
X461050Y282130D01*
X460880Y282000D01*
X460730Y281870D01*
X460580Y281720D01*
X460430Y281570D01*
X460300Y281420D01*
X460170Y281250D01*
X460060Y281080D01*
X459950Y280910D01*
X459850Y280730D01*
X459760Y280540D01*
X459680Y280350D01*
X459620Y280160D01*
X459560Y279960D01*
X459510Y279760D01*
X459470Y279560D01*
X459440Y279350D01*
X459430Y279150D01*
X459423Y279003D01*
Y278877D01*
X459430Y278730D01*
X459440Y278530D01*
X459470Y278320D01*
X459510Y278120D01*
X459560Y277920D01*
X459620Y277720D01*
X459680Y277530D01*
X459760Y277340D01*
X459850Y277150D01*
X459950Y276970D01*
X460060Y276800D01*
X460170Y276630D01*
X460300Y276460D01*
X460430Y276310D01*
X460580Y276160D01*
X460730Y276010D01*
X460880Y275880D01*
X461050Y275750D01*
X461220Y275640D01*
X461390Y275530D01*
X461570Y275430D01*
X461760Y275340D01*
X461950Y275260D01*
X462140Y275200D01*
X462340Y275140D01*
X462540Y275090D01*
X462740Y275050D01*
X462950Y275020D01*
X463150Y275010D01*
X463360Y275000D01*
Y270180D01*
X463150Y270170D01*
X462950Y270160D01*
X462740Y270130D01*
X462540Y270090D01*
X462340Y270040D01*
X462140Y269980D01*
X461950Y269920D01*
X461760Y269840D01*
X461570Y269750D01*
X461390Y269650D01*
X461220Y269540D01*
X461050Y269430D01*
X460880Y269300D01*
X460730Y269170D01*
X460580Y269020D01*
X460430Y268870D01*
X460300Y268720D01*
X460170Y268550D01*
X460060Y268380D01*
X459950Y268210D01*
X459850Y268030D01*
X459760Y267840D01*
X459680Y267650D01*
X459620Y267460D01*
X459560Y267260D01*
X459510Y267060D01*
X459470Y266860D01*
X459440Y266650D01*
X459430Y266450D01*
X459423Y266303D01*
Y266177D01*
X459430Y266030D01*
X459440Y265830D01*
X459470Y265620D01*
X459510Y265420D01*
X459560Y265220D01*
X459620Y265020D01*
X459680Y264830D01*
X459760Y264640D01*
X459850Y264450D01*
X459950Y264270D01*
X460060Y264100D01*
X460170Y263930D01*
X460300Y263760D01*
X460430Y263610D01*
X460580Y263460D01*
X460730Y263310D01*
X460880Y263180D01*
X461050Y263050D01*
X461220Y262940D01*
X461390Y262830D01*
X461570Y262730D01*
X461760Y262640D01*
X461950Y262560D01*
X462140Y262500D01*
X462340Y262440D01*
X462540Y262390D01*
X462740Y262350D01*
X462950Y262320D01*
X463150Y262310D01*
X463360Y262300D01*
Y257480D01*
X463150Y257470D01*
X462950Y257460D01*
X462740Y257430D01*
X462540Y257390D01*
X462340Y257340D01*
X462140Y257280D01*
X461950Y257220D01*
X461760Y257140D01*
X461570Y257050D01*
X461390Y256950D01*
X461220Y256840D01*
X461050Y256730D01*
X460880Y256600D01*
X460730Y256470D01*
X460580Y256320D01*
X460430Y256170D01*
X460300Y256020D01*
X460170Y255850D01*
X460060Y255680D01*
X459950Y255510D01*
X459850Y255330D01*
X459760Y255140D01*
X459680Y254950D01*
X459620Y254760D01*
X459560Y254560D01*
X459510Y254360D01*
X459470Y254160D01*
X459440Y253950D01*
X459430Y253750D01*
X459423Y253603D01*
Y253477D01*
X459430Y253330D01*
X459440Y253130D01*
X459470Y252920D01*
X459510Y252720D01*
X459560Y252520D01*
X459620Y252320D01*
X459680Y252130D01*
X459760Y251940D01*
X459850Y251750D01*
X459950Y251570D01*
X460060Y251400D01*
X460170Y251230D01*
X460300Y251060D01*
X460430Y250910D01*
X460580Y250760D01*
X460730Y250610D01*
X460880Y250480D01*
X461050Y250350D01*
X461220Y250240D01*
X461390Y250130D01*
X461570Y250030D01*
X461760Y249940D01*
X461950Y249860D01*
X462140Y249800D01*
X462340Y249740D01*
X462540Y249690D01*
X462740Y249650D01*
X462950Y249620D01*
X463150Y249610D01*
X463360Y249600D01*
Y244780D01*
X463150Y244770D01*
X462950Y244760D01*
X462740Y244730D01*
X462540Y244690D01*
X462340Y244640D01*
X462140Y244580D01*
X461950Y244520D01*
X461760Y244440D01*
X461570Y244350D01*
X461390Y244250D01*
X461220Y244140D01*
X461050Y244030D01*
X460880Y243900D01*
X460730Y243770D01*
X460580Y243620D01*
X460430Y243470D01*
X460300Y243320D01*
X460170Y243150D01*
X460060Y242980D01*
X459950Y242810D01*
X459850Y242630D01*
X459760Y242440D01*
X459680Y242250D01*
X459620Y242060D01*
X459560Y241860D01*
X459510Y241660D01*
X459470Y241460D01*
X459440Y241250D01*
X459430Y241050D01*
X459423Y240903D01*
Y240840D01*
X454597D01*
Y240903D01*
X454590Y241050D01*
X454580Y241250D01*
X454550Y241460D01*
X454510Y241660D01*
X454460Y241860D01*
X454400Y242060D01*
X454340Y242250D01*
X454260Y242440D01*
X454170Y242630D01*
X454070Y242810D01*
X453960Y242980D01*
X453850Y243150D01*
X453720Y243320D01*
X453590Y243470D01*
X453440Y243620D01*
X453290Y243770D01*
X453140Y243900D01*
X452970Y244030D01*
X452800Y244140D01*
X452630Y244250D01*
X452450Y244350D01*
X452260Y244440D01*
X452070Y244520D01*
X451880Y244580D01*
X451680Y244640D01*
X451480Y244690D01*
X451280Y244730D01*
X451070Y244760D01*
X450870Y244770D01*
X450660Y244780D01*
Y249600D01*
X450870Y249610D01*
X451070Y249620D01*
X451280Y249650D01*
X451480Y249690D01*
X451680Y249740D01*
X451880Y249800D01*
X452070Y249860D01*
X452260Y249940D01*
X452450Y250030D01*
X452630Y250130D01*
X452800Y250240D01*
X452970Y250350D01*
X453140Y250480D01*
X453290Y250610D01*
X453440Y250760D01*
X453590Y250910D01*
X453720Y251060D01*
X453850Y251230D01*
X453960Y251400D01*
X454070Y251570D01*
X454170Y251750D01*
X454260Y251940D01*
X454340Y252130D01*
X454400Y252320D01*
X454460Y252520D01*
X454510Y252720D01*
X454550Y252920D01*
X454580Y253130D01*
X454590Y253330D01*
X454597Y253477D01*
Y253603D01*
X454590Y253750D01*
X454580Y253950D01*
X454550Y254160D01*
X454510Y254360D01*
X454460Y254560D01*
X454400Y254760D01*
X454340Y254950D01*
X454260Y255140D01*
X454170Y255330D01*
X454070Y255510D01*
X453960Y255680D01*
X453850Y255850D01*
X453720Y256020D01*
X453590Y256170D01*
X453440Y256320D01*
X453290Y256470D01*
X453140Y256600D01*
X452970Y256730D01*
X452800Y256840D01*
X452630Y256950D01*
X452450Y257050D01*
X452260Y257140D01*
X452070Y257220D01*
X451880Y257280D01*
X451680Y257340D01*
X451480Y257390D01*
X451280Y257430D01*
X451070Y257460D01*
X450870Y257470D01*
X450660Y257480D01*
Y262300D01*
X450870Y262310D01*
X451070Y262320D01*
X451280Y262350D01*
X451480Y262390D01*
X451680Y262440D01*
X451880Y262500D01*
X452070Y262560D01*
X452260Y262640D01*
X452450Y262730D01*
X452630Y262830D01*
X452800Y262940D01*
X452970Y263050D01*
X453140Y263180D01*
X453290Y263310D01*
X453440Y263460D01*
X453590Y263610D01*
X453720Y263760D01*
X453850Y263930D01*
X453960Y264100D01*
X454070Y264270D01*
X454170Y264450D01*
X454260Y264640D01*
X454340Y264830D01*
X454400Y265020D01*
X454460Y265220D01*
X454510Y265420D01*
X454550Y265620D01*
X454580Y265830D01*
X454590Y266030D01*
X454597Y266177D01*
Y266303D01*
X454590Y266450D01*
X454580Y266650D01*
X454550Y266860D01*
X454510Y267060D01*
X454460Y267260D01*
X454400Y267460D01*
X454340Y267650D01*
X454260Y267840D01*
X454170Y268030D01*
X454070Y268210D01*
X453960Y268380D01*
X453850Y268550D01*
X453720Y268720D01*
X453590Y268870D01*
X453440Y269020D01*
X453290Y269170D01*
X453140Y269300D01*
X452970Y269430D01*
X452800Y269540D01*
X452630Y269650D01*
X452450Y269750D01*
X452260Y269840D01*
X452070Y269920D01*
X451880Y269980D01*
X451680Y270040D01*
X451480Y270090D01*
X451280Y270130D01*
X451070Y270160D01*
X450870Y270170D01*
X450660Y270180D01*
Y275000D01*
X450870Y275010D01*
X451070Y275020D01*
X451280Y275050D01*
X451480Y275090D01*
X451680Y275140D01*
X451880Y275200D01*
X452070Y275260D01*
X452260Y275340D01*
X452450Y275430D01*
X452630Y275530D01*
X452800Y275640D01*
X452970Y275750D01*
X453140Y275880D01*
X453290Y276010D01*
X453440Y276160D01*
X453590Y276310D01*
X453720Y276460D01*
X453850Y276630D01*
X453960Y276800D01*
X454070Y276970D01*
X454170Y277150D01*
X454260Y277340D01*
X454340Y277530D01*
X454400Y277720D01*
X454460Y277920D01*
X454510Y278120D01*
X454550Y278320D01*
X454580Y278530D01*
X454590Y278730D01*
X454597Y278877D01*
Y279003D01*
X454590Y279150D01*
X454580Y279350D01*
X454550Y279560D01*
X454510Y279760D01*
X454460Y279960D01*
X454400Y280160D01*
X454340Y280350D01*
X454260Y280540D01*
X454170Y280730D01*
X454070Y280910D01*
X453960Y281080D01*
X453850Y281250D01*
X453720Y281420D01*
X453590Y281570D01*
X453440Y281720D01*
X453290Y281870D01*
X453140Y282000D01*
X452970Y282130D01*
X452800Y282240D01*
X452630Y282350D01*
X452450Y282450D01*
X452260Y282540D01*
X452070Y282620D01*
X451880Y282680D01*
X451680Y282740D01*
X451480Y282790D01*
X451280Y282830D01*
X451070Y282860D01*
X450870Y282870D01*
X450660Y282880D01*
Y287700D01*
X450870Y287710D01*
X451070Y287720D01*
X451280Y287750D01*
X451480Y287790D01*
X451680Y287840D01*
X451880Y287900D01*
X452070Y287960D01*
X452260Y288040D01*
X452450Y288130D01*
X452630Y288230D01*
X452800Y288340D01*
X452970Y288450D01*
X453140Y288580D01*
X453290Y288710D01*
X453440Y288860D01*
X453590Y289010D01*
X453720Y289160D01*
X453850Y289330D01*
X453960Y289500D01*
X454070Y289670D01*
X454170Y289850D01*
X454260Y290040D01*
X454340Y290230D01*
X454400Y290420D01*
X454460Y290620D01*
X454510Y290820D01*
X454550Y291020D01*
X454580Y291230D01*
X454590Y291430D01*
X454597Y291577D01*
Y291640D01*
X459423D01*
Y291577D01*
D02*
G37*
D15*
X13441Y393366D02*
G03*
X-7300Y373355I-741J-19986D01*
G01*
X844216Y372639D02*
G03*
X824205Y393380I-19986J741D01*
G01*
X823489Y-6016D02*
G03*
X844230Y13995I741J19986D01*
G01*
X-6016Y14711D02*
G03*
X13995Y-6030I19986J-741D01*
G01*
X13441Y393366D02*
X824191D01*
X844216Y14009D02*
Y372639D01*
X-6016Y26336D02*
Y372071D01*
Y14711D02*
Y26336D01*
X14009Y-6016D02*
X823489D01*
D41*
X325120Y121600D02*
D03*
D42*
Y37120D02*
D03*
D43*
Y78080D02*
D03*
D44*
X676890Y189250D02*
D03*
M02*
